<svg width="78" height="78" viewBox="0 0 78 78" fill="#ccc" xmlns="http://www.w3.org/2000/svg">
<path d="M43.9607 64.9911C59.8094 62.1371 70.1758 46.181 67.1533 29.2961C64.1291 12.413 48.8528 0.9553 32.9793 3.66515C27.3053 4.63741 22.0719 7.36958 17.9322 11.5201C21.7495 8.4108 26.2824 6.34661 31.1107 5.51696C46.9898 2.80852 62.1914 13.8108 65.1175 30.1282C68.0454 46.4455 57.596 61.9397 41.741 64.7867C39.735 65.1425 37.6953 65.282 35.6556 65.2019C38.43 65.5506 41.2258 65.4792 43.9607 64.9911Z" />
<path d="M49.5416 64.9952C67.5425 61.7717 79.5131 44.8085 76.3217 27.0475C73.1288 9.28626 55.9743 -2.58748 37.947 0.483646C31.5047 1.58511 25.5165 4.65074 20.7668 9.08257C25.138 5.75281 30.321 3.40203 35.8053 2.46142C53.8364 -0.608085 70.913 10.7861 74.004 27.9516C77.094 45.1168 65.0366 61.5934 47.0293 64.8098C44.7509 65.2114 42.438 65.3858 40.1275 65.3295C43.2657 65.6591 46.4355 65.5465 49.5416 64.9952Z" />
<path d="M47.0455 64.9325C63.7883 61.9247 74.8132 45.4899 71.7071 28.1686C68.5992 10.848 52.5328 -0.841145 35.7635 2.01943C29.7704 3.04543 24.2323 5.78933 19.841 10.0715C23.8875 6.86077 28.6815 4.80616 33.7832 3.93067C50.5567 1.07172 66.5475 12.2925 69.5548 29.0324C72.5622 45.7728 61.453 61.7322 44.7044 64.7337C42.585 65.1084 40.4303 65.2613 38.2772 65.1901C41.2043 65.534 44.1563 65.4475 47.0455 64.9325Z" />
<path d="M61.2254 24.022C50.6988 11.9977 31.4927 11.2711 18.2608 22.397C5.03084 33.5234 2.75308 52.3147 13.1673 64.4333C16.8922 68.7621 21.9337 71.8269 27.6599 73.2422C23.0075 71.5719 18.9062 68.7661 15.7325 65.0822C5.31929 52.9581 7.23515 34.4624 20.0185 23.7051C32.8051 12.9487 51.6481 13.9796 62.1705 26.0117C63.4974 27.5363 64.654 29.1995 65.6183 30.9736C64.5172 28.4396 63.0385 26.099 61.2254 24.022Z" />
<path d="M58.4005 19.2766C46.4612 5.60963 25.5616 4.03045 11.6491 15.7441C-2.26268 27.4578 -3.95264 48.0565 7.86781 61.8224C12.0958 66.7407 17.8027 70.2003 24.0844 71.991C18.9585 69.9633 14.2834 66.8263 10.6821 62.6409C-1.13913 48.8695 0.171643 28.5814 13.614 17.256C27.0563 5.93054 47.5742 7.83062 59.5111 21.5055C61.0173 23.2384 62.3417 25.1164 63.4628 27.1091C62.1609 24.2749 60.4563 21.6371 58.4005 19.2766Z" />
<path d="M59.6117 21.4302C48.4951 8.72356 28.5382 7.68092 14.9681 19.0982C1.39724 30.5156 -0.681769 50.0961 10.3174 62.9001C14.2513 67.4744 19.1955 70.6567 25.1645 72.2192C20.3053 70.4072 16.3417 67.5076 12.992 63.6156C1.99122 50.8067 3.70073 31.5282 16.8126 20.4896C29.927 9.45098 49.5119 10.806 60.6236 23.5214C62.0242 25.1322 63.2498 26.885 64.2777 28.7518C63.0964 26.0902 61.5251 23.625 59.6117 21.4302Z" />
<path d="M16.7941 28.5798C10.9202 43.3703 19.2309 60.4564 35.3865 66.8017C51.5403 73.147 69.4608 66.3636 75.4723 51.6276C77.6163 46.3593 78.0126 40.5328 76.6111 34.8793C77.2828 39.716 76.681 44.6018 74.8557 49.0874C68.8402 63.8263 51.3547 70.7867 35.7392 64.659C20.1238 58.5302 12.255 41.6177 18.138 26.8264C18.8861 24.9571 19.8376 23.1735 20.9797 21.5046C19.2204 23.6473 17.8117 26.0292 16.7941 28.5798Z" />
<path d="M13.8552 33.2573C7.16692 50.0461 15.5044 69.0077 32.5046 75.6731C49.5048 82.3379 68.7695 74.1994 75.6024 57.4667C78.0417 51.4851 78.5673 44.7578 77.2428 38.4449C77.8141 43.8608 77.0973 49.5367 75.0239 54.63C68.1869 71.3658 49.3762 79.6905 32.9434 73.2542C16.5107 66.8168 8.64023 48.0391 15.3371 31.2485C16.1874 29.1267 17.2548 27.095 18.5181 25.187C16.5837 27.6449 15.0124 30.3627 13.8552 33.2573Z" />
<path d="M15.2231 31.1963C9.01049 46.8187 17.3889 64.7075 33.964 71.2137C50.5398 77.719 69.0742 70.3944 75.4272 54.8282C77.6935 49.2632 78.2408 43.1611 76.857 37.2278C77.4967 42.3094 76.7477 47.4242 74.8205 52.1626C68.4625 67.7312 50.3725 75.2382 34.3504 68.9554C18.3283 62.6711 10.405 44.9614 16.6246 29.338C17.4171 27.3635 18.4176 25.4776 19.6119 23.7098C17.7763 25.9825 16.2974 28.5029 15.2231 31.1963Z" />
</svg>
