<svg
    width="505"
    height="512"
    viewBox="0 0 505 512"
    fill="#ccc"
    xmlns="http://www.w3.org/2000/svg"
>
    <path d="M284.617 426.609C387.227 407.874 454.344 303.137 434.775 192.302C415.195 81.4802 316.291 6.27068 213.52 24.0584C176.785 30.4404 142.901 48.3746 116.099 75.6189C140.814 55.2093 170.162 41.6598 201.422 36.2139C304.229 18.4354 402.65 90.6557 421.594 197.764C440.55 304.873 372.897 406.578 270.246 425.266C257.259 427.602 244.053 428.518 230.847 427.992C248.809 430.281 266.911 429.812 284.617 426.609Z" />
    <path d="M320.75 426.635C437.294 405.476 514.797 294.127 494.134 177.542C473.462 60.9559 362.398 -16.9845 245.683 3.1747C203.972 10.4048 165.203 30.5279 134.452 59.6189C162.752 37.7621 196.309 22.3313 231.816 16.157C348.556 -3.99154 459.116 70.8012 479.129 183.477C499.134 296.151 421.07 404.305 304.484 425.418C289.733 428.054 274.759 429.199 259.8 428.829C280.117 430.993 300.64 430.254 320.75 426.635Z" />
    <path d="M304.59 426.224C412.988 406.48 484.367 298.6 464.257 184.902C444.136 71.2074 340.116 -5.52136 231.546 13.2557C192.745 19.9905 156.889 38.0017 128.458 66.1101C154.656 45.0348 185.694 31.5481 218.725 25.8013C327.322 7.03488 430.853 80.6891 450.323 190.571C469.793 300.458 397.868 405.216 289.432 424.919C275.711 427.378 261.76 428.382 247.821 427.915C266.772 430.172 285.884 429.604 304.59 426.224Z" />
    <path d="M396.395 157.683C328.242 78.7543 203.895 73.9848 118.227 147.016C32.5715 220.051 17.8244 343.399 85.2498 422.947C109.366 451.361 142.007 471.479 179.08 480.769C148.959 469.805 122.406 451.388 101.858 427.206C34.439 347.623 46.843 226.215 129.607 155.603C212.392 84.9965 334.388 91.7633 402.514 170.744C411.105 180.751 418.593 191.668 424.837 203.314C417.708 186.681 408.134 171.316 396.395 157.683Z" />
    <path d="M378.106 126.533C300.806 36.8222 165.495 26.4563 75.4206 103.346C-14.6494 180.236 -25.5908 315.448 50.939 405.809C78.3125 438.093 115.261 460.802 155.931 472.556C122.744 459.246 92.4761 438.655 69.16 411.181C-7.37516 320.785 1.11128 187.611 88.1416 113.27C175.172 38.9286 308.013 51.401 385.296 141.164C395.048 152.539 403.623 164.866 410.881 177.947C402.452 159.343 391.416 142.028 378.106 126.533Z" />
    <path d="M385.948 140.67C313.975 57.2623 184.767 50.4183 96.9091 125.363C9.04626 200.307 -4.41402 328.836 66.7983 412.883C92.2683 442.909 124.279 463.798 162.924 474.054C131.464 462.16 105.802 443.127 84.1149 417.579C12.8919 333.501 23.9598 206.954 108.851 134.496C193.758 62.0372 320.558 70.9317 392.499 154.397C401.567 164.97 409.502 176.476 416.157 188.73C408.509 171.259 398.336 155.077 385.948 140.67Z" />
    <path d="M108.731 187.601C70.7012 284.687 124.508 396.842 229.105 438.493C333.69 480.145 449.714 435.617 488.635 338.889C502.516 304.307 505.082 266.062 496.008 228.951C500.357 260.7 496.461 292.771 484.643 322.215C445.696 418.963 332.489 464.651 231.388 424.429C130.289 384.198 79.3435 273.183 117.432 176.091C122.275 163.821 128.436 152.113 135.83 141.159C124.44 155.223 115.319 170.858 108.731 187.601Z" />
    <path d="M89.7032 218.304C46.4012 328.507 100.381 452.974 210.446 496.726C320.512 540.475 445.239 487.053 489.477 377.217C505.27 337.953 508.673 293.794 500.097 252.356C503.796 287.906 499.156 325.164 485.731 358.597C441.466 468.453 319.679 523.097 213.287 480.848C106.896 438.592 55.9399 315.333 99.2979 205.118C104.803 191.191 111.714 177.854 119.893 165.33C107.369 181.464 97.196 199.304 89.7032 218.304Z" />
    <path d="M98.5595 204.776C58.3372 307.323 112.582 424.747 219.895 467.454C327.213 510.156 447.211 462.076 488.343 359.898C503.016 323.369 506.559 283.314 497.6 244.367C501.741 277.723 496.892 311.297 484.415 342.4C443.251 444.594 326.13 493.871 222.397 452.63C118.664 411.38 67.3658 295.132 107.633 192.578C112.764 179.617 119.242 167.238 126.975 155.634C115.09 170.552 105.515 187.096 98.5595 204.776Z" />
    <path d="M145.852 167.644L146.549 166.947H174.621L175.318 167.644V169.225C175.318 176.452 170.963 182.361 165.186 185.635C172.13 188.89 176.317 195.872 176.317 202.784V204.365L175.62 205.062H146.549L145.852 204.365V167.644ZM147.247 168.341V203.668H174.923V202.784C174.923 195.995 170.525 189.08 163.308 186.354L163.252 185.074C169.303 182.168 173.924 176.349 173.924 169.225V168.341H147.247ZM150.992 172.326L151.69 171.629H168.793L169.486 172.401C168.651 180.098 161.172 184.444 155.041 184.444H151.69L150.992 183.747V172.326ZM152.387 173.023V183.05H155.041C160.473 183.05 166.851 179.336 167.989 173.023H152.387ZM150.992 188.261L151.69 187.564H155.895C162.971 187.564 169.472 192.715 170.528 199.599L169.839 200.401H151.69L150.992 199.704V188.261ZM152.387 188.958V199.007H168.997C167.69 193.263 162.063 188.958 155.895 188.958H152.387Z" />
    <path d="M163.549 185.693C169.792 182.702 174.62 176.668 174.62 169.22V167.644H146.544V204.365H175.614V202.788C175.614 195.71 171.052 188.522 163.549 185.693ZM168.793 172.315C168.007 179.554 160.92 183.747 155.046 183.747H151.685V172.315H168.793ZM151.685 188.261H155.884C162.653 188.261 168.845 193.192 169.844 199.694H151.685V188.261Z" />
    <path d="M192.441 167.894L193.092 166.947H198.858L199.509 167.393L213.676 204.114L213.026 205.061H207.261L206.611 204.617L204.87 200.138L179.644 205.629L178.802 205.013C178.698 203.913 178.591 202.717 178.591 201.639C178.591 189.88 185.912 180.316 196.194 177.659L192.441 167.894ZM194.107 168.341L197.782 177.901L197.281 178.831C187.275 181.043 179.985 190.186 179.985 201.639C179.985 202.405 180.044 203.249 180.118 204.099L205.156 198.649L205.954 199.078L207.738 203.668H212.01L198.38 168.341H194.107ZM185.77 197.974L202.639 194.307L198.521 183.607C191.277 185.128 186.399 190.743 185.77 197.974ZM184.32 198.825C184.639 190.326 190.327 183.639 198.84 182.125L199.613 182.561L204.233 194.565L203.73 195.496L185.165 199.532L184.32 198.825Z" />
    <path d="M213.031 204.365L198.862 167.644H193.092L197.131 178.135C186.791 180.444 179.288 189.884 179.288 201.639C179.288 202.684 179.392 203.84 179.496 204.942L205.315 199.33L207.261 204.365H213.031ZM185.006 198.856C185.323 190.675 190.782 184.272 198.968 182.806L203.587 194.815L185.006 198.856Z" />
    <path d="M216.122 167.644L216.82 166.947H246.723L247.42 167.644V172.678L247.241 173.144L224.35 198.633H246.978L247.676 199.33V204.365L246.978 205.061H216.279L215.581 204.365V199.33L215.76 198.864L238.65 173.375H216.82L216.122 172.678V167.644ZM217.517 168.341V171.981H240.213L240.732 173.144L216.976 199.597V203.668H246.281V200.027H222.787L222.268 198.864L246.025 172.411V168.341H217.517Z" />
    <path d="M216.285 204.365H246.983V199.33H222.793L246.723 172.679V167.644H216.809V172.679H240.213L216.285 199.33V204.365Z" />
    <path d="M263.284 167.894L263.935 166.947H269.695L270.345 167.393L284.525 204.114L283.875 205.061H278.109L277.46 204.617L275.719 200.138L250.493 205.629L249.65 205.013C249.547 203.913 249.439 202.717 249.439 201.639C249.439 189.88 256.76 180.316 267.032 177.659L263.284 167.894ZM264.95 168.341L268.618 177.901L268.118 178.831C258.124 181.043 250.834 190.186 250.834 201.639C250.834 202.405 250.893 203.249 250.967 204.099L276.004 198.649L276.803 199.078L278.587 203.668H282.858L269.217 168.341H264.95ZM256.614 197.974L273.482 194.307L269.358 183.607C262.125 185.128 257.248 190.743 256.614 197.974ZM255.164 198.824C255.488 190.326 261.176 183.639 269.677 182.125L270.45 182.561L275.076 194.564L274.573 195.496L256.009 199.532L255.164 198.824Z" />
    <path d="M283.875 204.365L269.706 167.644H263.936L267.973 178.135C257.635 180.444 250.132 189.884 250.132 201.639C250.132 202.684 250.236 203.84 250.339 204.943L276.158 199.33L278.105 204.365H283.875ZM255.85 198.856C256.167 190.675 261.626 184.272 269.81 182.806L274.431 194.815L255.85 198.856Z" />
    <path d="M141.918 233.216L142.615 232.519H174.085L174.782 233.216V238.25L174.085 238.947H161.664V269.936L160.967 270.633H155.728L155.031 269.936V238.947H142.615L141.918 238.25V233.216ZM143.313 233.913V237.553H155.728L156.425 238.25V269.24H160.27V238.25L160.967 237.553H173.388V233.913H143.313Z" />
    <path d="M174.095 233.216H142.61V238.25H155.728V269.931H160.972V238.25H174.095V233.216Z" />
    <path d="M178.908 233.216L179.605 232.519H207.927L208.624 233.216V234.798C208.624 243.098 204.5 249.444 198.226 253.144L211.267 269.502L210.722 270.633H204.305L203.756 270.366L192.246 255.668C190.076 256.241 187.817 256.608 185.444 256.713V269.936L184.747 270.633H179.605L178.908 269.936V233.216ZM180.303 233.913V269.24H184.05V256.039L184.731 255.343C187.396 255.281 189.913 254.874 192.323 254.203L193.059 254.445L204.645 269.24H209.275L196.627 253.374L196.839 252.327C203.097 248.925 207.23 242.868 207.23 234.798V233.913H180.303ZM184.05 237.794L184.747 237.097H202.474L203.162 237.903C201.793 246.52 194.68 251.972 184.747 251.972L184.05 251.275V237.794ZM185.444 238.491V250.569C194.124 250.332 200.133 245.658 201.637 238.491H185.444Z" />
    <path d="M204.321 269.931H210.722L197.183 252.94C203.639 249.423 207.943 243.129 207.943 234.787V233.216H179.605V269.931H184.747V256.034C187.474 255.982 190.048 255.56 192.515 254.88L204.321 269.931ZM184.747 251.259V237.778H202.484C201.174 246.016 194.404 251.259 184.747 251.259Z" />
    <path d="M224.921 233.466L225.571 232.519H231.337L231.987 232.965L246.167 269.686L245.516 270.633H239.751L239.101 270.189L237.36 265.71L212.134 271.201L211.292 270.585C211.188 269.487 211.081 268.29 211.081 267.211C211.081 255.452 218.402 245.889 228.678 243.231L224.921 233.466ZM226.587 233.913L230.265 243.473L229.765 244.403C219.765 246.615 212.475 255.758 212.475 267.211C212.475 267.978 212.534 268.822 212.608 269.671L237.646 264.221L238.444 264.65L240.228 269.24H244.5L230.858 233.913H226.587ZM218.255 263.547L235.119 259.879L231.005 249.179C223.767 250.7 218.89 256.315 218.255 263.547ZM216.805 264.397C217.129 255.898 222.817 249.211 231.324 247.697L232.097 248.133L236.712 260.137L236.21 261.068L217.65 265.105L216.805 264.397Z" />
    <path d="M245.516 269.931L231.347 233.216H225.571L229.614 243.707C219.276 246.016 211.772 255.456 211.772 267.206C211.772 268.256 211.876 269.412 211.98 270.509L237.799 264.897L239.74 269.931H245.516ZM217.491 264.428C217.808 256.242 223.261 249.844 231.451 248.373L236.066 260.387L217.491 264.428Z" />
    <path d="M250.438 233.216L251.136 232.519H256.381L257.078 233.216V269.936L256.381 270.633H251.136L250.438 269.936V233.216ZM251.833 233.913V269.24H255.684V233.913H251.833Z" />
    <path d="M251.131 233.216H256.376V269.931H251.131V233.216Z" />
    <path d="M265.127 233.216L265.824 232.519H271.07L271.584 232.745L291.893 254.872V233.216L292.59 232.519H297.829L298.527 233.216V269.936L297.829 270.633H292.59L291.893 269.936V264.03L271.767 242.14V269.936L271.07 270.633H265.824L265.127 269.936V233.216ZM266.522 233.913V269.24H270.373V240.351L271.583 239.88L293.104 263.287L293.288 263.758V269.24H297.132V233.913H293.288V256.663L292.077 257.134L270.763 233.913H266.522Z" />
    <path d="M292.585 233.216V256.663L271.07 233.216H265.824V269.931H271.07V240.346L292.585 263.742V269.931H297.835V233.216H292.585Z" />
    <path d="M306.587 233.216L307.284 232.519H331.948L332.646 233.216V238.146L331.948 238.843H313.227V248.415H330.361L331.058 249.112V254.042L330.361 254.739H313.227V264.309H331.948L332.646 265.006V269.936L331.948 270.633H307.284L306.587 269.936V233.216ZM307.982 233.913V269.24H331.251V265.703H312.53L311.833 265.006V254.042L312.53 253.345H329.663V249.809H312.53L311.833 249.112V238.146L312.53 237.449H331.251V233.913H307.982Z" />
    <path d="M331.943 238.146V233.216H307.279V269.931H331.943V265.001H312.524V254.042H330.366V249.112H312.524V238.146H331.943Z" />
    <path d="M339.123 233.216L339.82 232.519H364.483L365.18 233.216V238.146L364.483 238.843H345.756V248.415H362.902L363.599 249.112V254.042L362.902 254.739H345.756V264.309H364.483L365.18 265.006V269.936L364.483 270.633H339.82L339.123 269.936V233.216ZM340.517 233.913V269.24H363.786V265.703H345.059L344.362 265.006V254.042L345.059 253.345H362.204V249.809H345.059L344.362 249.112V238.146L345.059 237.449H363.786V233.913H340.517Z" />
    <path d="M364.479 238.146V233.216H339.815V269.931H364.479V265.001H345.059V254.042H362.902V249.112H345.059V238.146H364.479Z" />
    <path d="M145.331 298.782L146.028 298.086H151.274L151.971 298.782V311.578C151.971 317.448 153.745 321.968 157.001 325.025C160.264 328.088 165.109 329.772 171.421 329.772H172.077V298.782L172.774 298.086H178.019L178.716 298.782V335.503L178.019 336.2H171.421C163.243 336.2 156.703 333.992 152.203 329.759C147.698 325.52 145.331 319.336 145.331 311.578V298.782ZM146.725 299.479V311.578C146.725 319.049 148.997 324.828 153.159 328.744C157.327 332.666 163.484 334.806 171.421 334.806H177.321V299.479H173.472V330.469L172.774 331.166H171.421C164.871 331.166 159.642 329.417 156.047 326.041C152.445 322.659 150.576 317.734 150.576 311.578V299.479H146.725Z" />
    <path d="M172.784 298.782V330.469H171.416C158.559 330.469 151.268 323.598 151.268 311.582V298.782H146.019V311.582C146.019 326.796 155.306 335.503 171.416 335.503H178.029V298.782H172.784Z" />
    <path d="M186.781 298.782L187.479 298.086H192.619L193.316 298.782V314.148H196.615C200.843 314.148 204.274 312.811 206.651 310.277C209.034 307.738 210.44 303.912 210.44 298.782L211.137 298.086H216.388L217.085 298.782C217.085 306.468 214.084 313.704 207.787 316.869C214.509 320.076 217.814 327.478 217.814 335.503L217.117 336.2H211.866L211.168 335.503C211.168 330.96 209.883 327.131 207.459 324.447C205.044 321.773 201.432 320.159 196.615 320.159H193.316V335.503L192.619 336.2H187.479L186.781 335.503V298.782ZM188.176 299.479V334.806H191.922V319.462L192.619 318.765H196.615C201.762 318.765 205.775 320.502 208.494 323.513C211.073 326.368 212.427 330.3 212.553 334.806H216.411C216.211 326.829 212.583 319.958 205.769 317.54L205.762 316.229C212.151 313.882 215.492 307.172 215.682 299.479H211.826C211.703 304.524 210.24 308.49 207.668 311.231C204.975 314.101 201.144 315.542 196.615 315.542H192.619L191.922 314.845V299.479H188.176Z" />
    <path d="M205.997 316.883C212.98 314.313 216.388 306.918 216.388 298.782H211.143C211.143 309.273 205.367 314.834 196.605 314.834H192.619V298.782H187.474V335.503H192.619V319.453H196.605C206.575 319.453 211.877 326.168 211.877 335.503H217.126C217.126 327.057 213.396 319.505 205.997 316.883Z" />
    <path d="M223.516 298.782L224.213 298.085H252.534L253.231 298.782V300.364C253.231 308.664 249.113 315.011 242.828 318.71L255.869 335.069L255.323 336.2H248.919L248.37 335.933L236.848 321.235C234.685 321.808 232.422 322.175 230.046 322.28V335.503L229.348 336.2H224.213L223.516 335.503V298.782ZM224.911 299.479V334.806H228.651V321.606L229.332 320.909C232.003 320.848 234.525 320.441 236.924 319.77L237.66 320.011L249.258 334.806H253.876L241.228 318.94L241.441 317.894C247.71 314.491 251.837 308.434 251.837 300.364V299.479H224.911ZM228.651 303.36L229.348 302.663H247.087L247.776 303.47C246.394 312.088 239.282 317.539 229.348 317.539L228.651 316.842V303.36ZM230.046 304.057V316.135C238.725 315.898 244.735 311.225 246.249 304.057H230.046Z" />
    <path d="M248.924 335.503H255.329L241.79 318.506C248.242 314.995 252.545 308.697 252.545 300.359V298.782H224.208V335.503H229.349V321.601C232.081 321.549 234.652 321.132 237.117 320.452L248.924 335.503ZM229.349 316.831V303.35H247.088C245.776 311.582 239.006 316.831 229.349 316.831Z" />
    <path d="M269.529 299.032L270.18 298.086H275.945L276.596 298.532L290.763 335.252L290.113 336.2H284.347L283.697 335.755L281.961 331.277L256.736 336.767L255.894 336.155C255.785 335.054 255.677 333.857 255.677 332.777C255.677 321.019 262.998 311.456 273.281 308.797L269.529 299.032ZM271.195 299.479L274.868 309.04L274.368 309.97C264.361 312.183 257.072 321.324 257.072 332.777C257.072 333.545 257.131 334.389 257.207 335.238L282.248 329.788L283.046 330.217L284.825 334.806H289.096L275.467 299.479H271.195ZM262.857 329.113L279.727 325.445L275.608 314.745C268.364 316.268 263.491 321.882 262.857 329.113ZM261.407 329.964C261.731 321.464 267.414 314.779 275.927 313.264L276.7 313.699L281.32 325.703L280.818 326.635L262.252 330.672L261.407 329.964Z" />
    <path d="M290.118 335.503L275.95 298.782H270.18L274.217 309.274C263.878 311.582 256.375 321.023 256.375 332.777C256.375 333.824 256.479 334.978 256.588 336.081L282.407 330.469L284.347 335.503H290.118ZM262.098 329.996C262.411 321.814 267.869 315.41 276.054 313.944L280.674 325.953L262.098 329.996Z" />
    <path d="M295.04 298.782L295.738 298.086H300.983L301.681 298.782V335.503L300.983 336.2H295.738L295.04 335.503V298.782ZM296.435 299.479V334.806H300.286V299.479H296.435Z" />
    <path d="M295.733 298.782H300.983V335.503H295.733V298.782Z" />
    <path d="M309.728 298.782L310.426 298.085H315.677L316.19 298.311L336.5 320.44V298.782L337.197 298.085H342.443L343.14 298.782V335.503L342.443 336.2H337.197L336.5 335.503V329.596L316.374 307.708V335.503L315.677 336.2H310.426L309.728 335.503V298.782ZM311.123 299.479V334.806H314.979V305.919L316.19 305.448L337.711 328.853L337.894 329.325V334.806H341.745V299.479H337.894V322.23L336.683 322.701L315.37 299.479H311.123Z" />
    <path d="M337.192 298.782V322.23L315.677 298.782H310.426V335.503H315.677V305.919L337.192 329.314V335.503H342.437V298.782H337.192Z" />
    <path d="M351.188 298.782L351.886 298.085H376.55L377.247 298.782V303.713L376.55 304.41H357.828V313.981H374.969L375.666 314.678V319.609L374.969 320.306H357.828V329.875H376.55L377.247 330.572V335.503L376.55 336.2H351.886L351.188 335.503V298.782ZM352.583 299.479V334.806H375.852V331.269H357.131L356.434 330.572V319.609L357.131 318.912H374.271V315.375H357.131L356.434 314.678V303.713L357.131 303.016H375.852V299.479H352.583Z" />
    <path d="M376.545 303.713V298.782H351.881V335.503H376.545V330.573H357.132V319.609H374.973V314.678H357.132V303.713H376.545Z" />
</svg>
