<svg width="214" height="100" viewBox="0 0 214 100" fill="none" xmlns="http://www.w3.org/2000/svg">
<rect width="214" height="100" fill="white"/>
<rect width="214" height="100" fill="url(#paint0_linear_6803_6221)"/>
<path d="M41.4186 30.4419V57.7745C41.4186 59.3997 41.0293 61.0162 40.2103 62.4828C40.1597 62.5722 40.1091 62.6601 40.0569 62.7481C38.7323 64.9674 36.5618 66.7541 33.9075 67.7953C32.2594 68.4442 30.4259 68.8062 28.4929 68.8062C22.9907 68.8062 18.2873 65.8745 16.3998 61.7387L16.3897 61.717C15.9229 60.6903 15.6836 59.5987 15.6836 58.4969V54.6712H25.1225V57.3693C25.1225 58.1105 25.8236 58.7104 26.6898 58.7104C27.0335 58.7104 27.3133 58.471 27.3133 58.1768V30.4419H41.4186Z" fill="#56BFD9"/>
<path d="M28.4946 70.2484C25.4848 70.2484 22.5929 69.474 20.1308 68.0074C17.726 66.5755 15.8942 64.5898 14.8325 62.2637L14.8224 62.2435C14.2764 61.0423 14 59.7834 14 58.4971V53.2293H25.6297V29H43.1054V57.7746C43.1054 59.6536 42.6302 61.4966 41.7319 63.1044C41.6763 63.2054 41.6174 63.3049 41.5584 63.4044C40.0636 65.9107 37.5947 67.9353 34.6102 69.1062C32.6857 69.8633 30.628 70.2484 28.4929 70.2484H28.4946ZM17.3704 56.1134V58.4971C17.3704 59.4229 17.5693 60.3314 17.962 61.1952L17.9704 61.2139C19.6758 64.9517 23.8063 67.3657 28.4946 67.3657C30.1393 67.3657 31.7234 67.0701 33.2047 66.486C35.5051 65.5833 37.406 64.0245 38.557 62.0936C38.6025 62.0171 38.648 61.9407 38.6901 61.8628C39.3726 60.64 39.7333 59.2268 39.7333 57.7761V31.8841H28.9984V58.177C28.9984 59.2657 27.962 60.1526 26.6897 60.1526C24.8966 60.1526 23.4372 58.9038 23.4372 57.3694V56.1134H17.3704Z" fill="#1D1D1B"/>
<path d="M26.0273 69.3009L33.2081 66.4846C35.5067 65.5833 37.4059 64.023 38.5586 62.0921C38.6041 62.0157 38.6496 61.9393 38.6918 61.8614C39.3743 60.6385 39.7349 59.2253 39.7349 57.7746V29H48.3902V57.045C48.3902 58.8922 47.9133 60.7006 47.01 62.2738C46.9544 62.3719 46.8954 62.47 46.8364 62.5666C44.3423 66.636 39.3945 69.1928 33.926 69.236L26.0273 69.2995V69.3009ZM43.107 31.8841V57.7746C43.107 59.6536 42.6318 61.4966 41.7336 63.1045C41.678 63.2054 41.619 63.3049 41.56 63.4044C41.4117 63.6524 41.2533 63.8976 41.0865 64.1355C42.2105 63.3438 43.1559 62.3618 43.8519 61.2269C43.8973 61.1534 43.9411 61.0786 43.9849 61.0037C43.9849 61.0036 43.9849 61.0038 43.9849 61.0037C44.6624 59.8226 45.0214 58.4524 45.0214 57.045V31.8841H43.107Z" fill="#1D1D1B"/>
<path d="M43.1069 31.8843V57.7748C43.1069 59.6538 42.6317 61.4968 41.7335 63.1047C41.6779 63.2056 41.6189 63.3051 41.5599 63.4046C41.4116 63.6526 41.2532 63.8978 41.0864 64.1357C42.2104 63.344 43.1558 62.362 43.8518 61.2271C43.8972 61.1536 43.941 61.0788 43.9848 61.0039C44.6623 59.8228 45.0213 58.4526 45.0213 57.0452V31.8843H43.1069Z" fill="#EBB33F"/>
<path d="M53.7969 59.6317V47.7993H56.934V59.6317C56.934 61.348 57.2352 62.6097 57.8376 63.4167C58.4514 64.2237 59.3948 64.6272 60.6679 64.6272C62.1455 64.6272 63.2764 64.11 64.0607 63.0757C64.845 62.03 65.2371 60.5353 65.2371 58.5916V47.7993H68.3913V66.8607H65.2371V63.9964C64.6802 65.0989 63.9186 65.9343 62.9525 66.5026C61.9977 67.071 60.8781 67.3551 59.5937 67.3551C57.6387 67.3551 56.1838 66.7186 55.229 65.4456C54.2743 64.1612 53.7969 62.2232 53.7969 59.6317Z" fill="black"/>
<path d="M87.3354 55.0287V66.8611H84.1813V55.0287C84.1813 53.3123 83.8801 52.0507 83.2776 51.2437C82.6752 50.4367 81.7318 50.0331 80.4474 50.0331C78.9811 50.0331 77.8502 50.556 77.0545 51.6017C76.2703 52.636 75.8781 54.125 75.8781 56.0687V66.8611H72.741V47.7656H75.8781V50.6299C76.4351 49.5387 77.1909 48.7146 78.1457 48.1577C79.1005 47.5894 80.2315 47.3052 81.5386 47.3052C83.4822 47.3052 84.9314 47.9474 85.8862 49.2318C86.8524 50.5049 87.3354 52.4371 87.3354 55.0287Z" fill="black"/>
<path d="M93.748 47.8336H101.778V64.4228H108.002V66.8609H92.4182V64.4228H98.6413V50.2716H93.748V47.8336ZM98.6413 40.417H101.778V44.3725H98.6413V40.417Z" fill="black"/>
<path d="M109.01 47.7656H112.266L117.807 63.7922L123.365 47.7656H126.622L119.836 66.8611H115.795L109.01 47.7656Z" fill="black"/>
<path d="M145.344 55.7448V57.2792H131.756V57.3815C131.665 59.9844 132.159 61.8542 133.239 62.9908C134.33 64.1275 135.865 64.6958 137.842 64.6958C138.843 64.6958 139.888 64.5367 140.98 64.2184C142.071 63.9001 143.236 63.4171 144.475 62.7692V65.8893C143.281 66.378 142.128 66.7417 141.014 66.9804C139.911 67.2305 138.843 67.3555 137.808 67.3555C134.842 67.3555 132.523 66.4689 130.852 64.6958C129.181 62.9113 128.346 60.4561 128.346 57.3304C128.346 54.2842 129.164 51.8518 130.801 50.0331C132.438 48.2145 134.62 47.3052 137.348 47.3052C139.78 47.3052 141.696 48.1293 143.094 49.7774C144.503 51.4255 145.253 53.4146 145.344 55.7448ZM142.207 54.8241C142.071 53.5056 141.588 52.3689 140.758 51.4142C139.94 50.448 138.757 49.9649 137.212 49.9649C135.7 49.9649 134.455 50.4651 133.478 51.4653C132.5 52.4656 131.966 53.5908 131.875 54.8411L142.207 54.8241Z" fill="black"/>
<path d="M164.187 51.704C163.516 51.1812 162.834 50.8004 162.141 50.5617C161.447 50.323 160.686 50.2036 159.856 50.2036C157.901 50.2036 156.406 50.8174 155.372 52.045C154.338 53.2726 153.821 55.0457 153.821 57.3645V66.8611H150.666V47.7656H153.821V51.4994C154.343 50.1468 155.145 49.1125 156.225 48.3964C157.316 47.6689 158.606 47.3052 160.095 47.3052C160.868 47.3052 161.59 47.4018 162.26 47.5951C162.931 47.7883 163.573 48.0895 164.187 48.4987V51.704Z" fill="black"/>
<path d="M179.33 48.4305V51.4994C178.432 50.9766 177.528 50.5844 176.619 50.323C175.709 50.0616 174.783 49.9308 173.84 49.9308C172.419 49.9308 171.356 50.1639 170.651 50.6299C169.958 51.0845 169.611 51.7836 169.611 52.727C169.611 53.5795 169.873 54.216 170.396 54.6365C170.918 55.0571 172.22 55.4663 174.3 55.8641L175.562 56.1028C177.119 56.3983 178.295 56.9894 179.091 57.876C179.898 58.7625 180.301 59.9162 180.301 61.337C180.301 63.2238 179.631 64.7015 178.289 65.7699C176.948 66.827 175.084 67.3555 172.697 67.3555C171.754 67.3555 170.765 67.2532 169.731 67.0486C168.696 66.8554 167.577 66.5599 166.372 66.162V62.9226C167.543 63.525 168.662 63.9797 169.731 64.2866C170.799 64.5821 171.811 64.7299 172.765 64.7299C174.152 64.7299 175.226 64.4514 175.988 63.8945C176.749 63.3261 177.13 62.5362 177.13 61.5246C177.13 60.0697 175.738 59.0637 172.953 58.5068L172.817 58.4727L171.64 58.234C169.833 57.8816 168.514 57.2906 167.685 56.4608C166.855 55.6197 166.44 54.4774 166.44 53.0339C166.44 51.2039 167.06 49.7945 168.298 48.8056C169.537 47.8053 171.305 47.3052 173.601 47.3052C174.624 47.3052 175.607 47.4018 176.55 47.5951C177.494 47.7769 178.42 48.0554 179.33 48.4305Z" fill="black"/>
<path d="M200.082 55.7448V57.2792H186.493V57.3815C186.402 59.9844 186.897 61.8542 187.976 62.9908C189.068 64.1275 190.602 64.6958 192.58 64.6958C193.58 64.6958 194.626 64.5367 195.717 64.2184C196.808 63.9001 197.973 63.4171 199.212 62.7692V65.8893C198.019 66.378 196.865 66.7417 195.751 66.9804C194.648 67.2305 193.58 67.3555 192.546 67.3555C189.579 67.3555 187.26 66.4689 185.589 64.6958C183.919 62.9113 183.083 60.4561 183.083 57.3304C183.083 54.2842 183.902 51.8518 185.538 50.0331C187.175 48.2145 189.357 47.3052 192.085 47.3052C194.518 47.3052 196.433 48.1293 197.831 49.7774C199.24 51.4255 199.991 53.4146 200.082 55.7448ZM196.944 54.8241C196.808 53.5056 196.325 52.3689 195.495 51.4142C194.677 50.448 193.495 49.9649 191.949 49.9649C190.437 49.9649 189.193 50.4651 188.215 51.4653C187.238 52.4656 186.703 53.5908 186.612 54.8411L196.944 54.8241Z" fill="black"/>
<defs>
<linearGradient id="paint0_linear_6803_6221" x1="8" y1="58" x2="214" y2="50" gradientUnits="userSpaceOnUse">
<stop stop-color="#DCF3FB"/>
<stop offset="1" stop-color="#FEF1DD"/>
</linearGradient>
</defs>
</svg>
