<?xml version="1.0" encoding="UTF-8"?><!DOCTYPE svg PUBLIC "-//W3C//DTD SVG 1.1//EN" "http://www.w3.org/Graphics/SVG/1.1/DTD/svg11.dtd"><svg xmlns="http://www.w3.org/2000/svg" xmlns:xlink="http://www.w3.org/1999/xlink"><symbol id="arrow-bottom"><g fill="none"><path d="M15 1 8 8 1 1" stroke="#232323" stroke-width="1.5" stroke-linecap="round" stroke-linejoin="round"/></g></symbol><symbol id="arrow-left"><g fill="none"><path d="M15 1 1 15l14 14" stroke="#FCFCFC" stroke-width="1.5" stroke-linecap="round" stroke-linejoin="round"/></g></symbol><symbol id="arrow-right"><g fill="none"><path d="m1 1 14 14L1 29" stroke="#FCFCFC" stroke-width="1.5" stroke-linecap="round" stroke-linejoin="round"/></g></symbol><symbol id="arrow-top"><g fill="none"><path d="M15 8 8 1 1 8" stroke="#121212" stroke-width="1.5" stroke-linecap="round" stroke-linejoin="round"/></g></symbol><symbol id="close"><g fill="none"><path d="M18 6 6 18M6 6l12 12" stroke="#FCFCFC" stroke-width="1.5" stroke-linecap="round" stroke-linejoin="round"/></g></symbol><symbol id="fb" viewBox="0 0 48 48"><path d="M48 24.147C48 10.81 37.255 0 24 0S0 10.81 0 24.147C0 36.199 8.776 46.189 20.25 48V31.127h-6.094v-6.98h6.094v-5.32c0-6.052 3.583-9.395 9.065-9.395 2.625 0 5.373.472 5.373.472v5.942H31.66c-2.981 0-3.911 1.862-3.911 3.773v4.528h6.656l-1.064 6.98H27.75V48C39.224 46.189 48 36.199 48 24.147Z"/></symbol><symbol id="left-arrow"><g fill="none"><path d="M11.6 25.133.367 13.933a1.178 1.178 0 0 1-.284-.433A1.443 1.443 0 0 1 0 13c0-.178.028-.344.083-.5.055-.155.15-.3.284-.433L11.6.833c.311-.31.7-.466 1.167-.466.466 0 .866.166 1.2.5.333.333.5.722.5 1.166 0 .445-.167.834-.5 1.167l-9.8 9.8 9.8 9.8c.31.311.466.695.466 1.15 0 .457-.166.85-.5 1.183-.333.334-.722.5-1.166.5-.445 0-.834-.166-1.167-.5Z" fill="#101010"/></g></symbol><symbol id="level-icon"><g fill="none"><path d="M18 20V10m-6 10V4M6 20v-6" stroke="#FCFCFC" stroke-width="1.5" stroke-linecap="round" stroke-linejoin="round"/></g></symbol><symbol id="linkedIn" viewBox="0 0 48 48"><path d="M44.447 0H3.544C1.584 0 0 1.547 0 3.46V44.53C0 46.444 1.584 48 3.544 48h40.903C46.407 48 48 46.444 48 44.54V3.46C48 1.546 46.406 0 44.447 0ZM14.24 40.903H7.116V17.991h7.125v22.912ZM10.678 14.87a4.127 4.127 0 0 1-4.134-4.125 4.127 4.127 0 0 1 4.134-4.125 4.125 4.125 0 0 1 0 8.25Zm30.225 26.034h-7.116V29.766c0-2.654-.046-6.075-3.703-6.075-3.703 0-4.265 2.896-4.265 5.887v11.325h-7.107V17.991h6.825v3.13h.094c.947-1.8 3.272-3.702 6.732-3.702 7.209 0 8.54 4.744 8.54 10.912v12.572Z"/></symbol><symbol id="logo-black"><g fill="none"><path fill-rule="evenodd" clip-rule="evenodd" d="M43.96 64.991c15.85-2.854 26.216-18.81 23.193-35.695C64.13 12.413 48.853.956 32.98 3.666c-5.674.971-10.907 3.704-15.047 7.854a28.5 28.5 0 0 1 13.179-6.003c15.879-2.708 31.08 8.294 34.007 24.611 2.927 16.318-7.522 31.812-23.377 34.659a28.449 28.449 0 0 1-6.085.415c2.774.349 5.57.277 8.305-.21Z" fill="#262626"/><path fill-rule="evenodd" clip-rule="evenodd" d="M49.542 64.995c18-3.223 29.971-20.187 26.78-37.948C73.129 9.287 55.974-2.587 37.947.485c-6.442 1.101-12.43 4.167-17.18 8.599 4.371-3.33 9.554-5.681 15.038-6.622 18.031-3.07 35.108 8.325 38.199 25.49 3.09 17.166-8.967 33.642-26.975 36.859a34.874 34.874 0 0 1-6.902.52c3.139.33 6.308.216 9.415-.335Z" fill="#262626"/><path fill-rule="evenodd" clip-rule="evenodd" d="M47.045 64.933c16.743-3.008 27.768-19.443 24.662-36.764C68.6 10.848 52.533-.841 35.764 2.019 29.77 3.045 24.232 5.79 19.84 10.072c4.046-3.211 8.84-5.266 13.942-6.141 16.774-2.86 32.764 8.362 35.772 25.101 3.007 16.74-8.102 32.7-24.85 35.702-2.12.374-4.275.527-6.428.456 2.927.344 5.88.258 8.768-.257Z" fill="#262626"/><path fill-rule="evenodd" clip-rule="evenodd" d="M61.225 24.022C50.7 11.998 31.493 11.272 18.261 22.397 5.03 33.523 2.753 52.315 13.167 64.433c3.725 4.33 8.767 7.394 14.493 8.81-4.652-1.671-8.754-4.477-11.928-8.16C5.32 52.957 7.236 34.462 20.02 23.704c12.786-10.756 31.63-9.725 42.151 2.307a27.731 27.731 0 0 1 3.448 4.962 26.8 26.8 0 0 0-4.393-6.952Z" fill="#262626"/><path fill-rule="evenodd" clip-rule="evenodd" d="M58.4 19.277C46.462 5.61 25.563 4.03 11.65 15.744-2.264 27.458-3.954 48.057 7.867 61.822c4.228 4.919 9.935 8.378 16.216 10.169-5.125-2.028-9.8-5.165-13.402-9.35C-1.139 48.87.172 28.58 13.614 17.256c13.442-11.325 33.96-9.425 45.897 4.25a33.831 33.831 0 0 1 3.952 5.603 32.731 32.731 0 0 0-5.063-7.832Z" fill="#262626"/><path fill-rule="evenodd" clip-rule="evenodd" d="M59.612 21.43C48.495 8.724 28.538 7.68 14.968 19.098 1.398 30.516-.682 50.096 10.318 62.9c3.933 4.574 8.877 7.757 14.847 9.32-4.86-1.813-8.823-4.712-12.173-8.604-11-12.81-9.291-32.088 3.82-43.126 13.115-11.039 32.7-9.684 43.812 3.031a30.097 30.097 0 0 1 3.654 5.23 29.101 29.101 0 0 0-4.666-7.32Z" fill="#262626"/><path fill-rule="evenodd" clip-rule="evenodd" d="M16.794 28.58c-5.874 14.79 2.437 31.876 18.592 38.222 16.154 6.345 34.075-.438 40.086-15.174 2.144-5.269 2.54-11.095 1.14-16.749a27.57 27.57 0 0 1-1.756 14.208c-6.016 14.74-23.501 21.7-39.117 15.572-15.615-6.129-23.484-23.041-17.601-37.833.748-1.869 1.7-3.652 2.842-5.321a26.783 26.783 0 0 0-4.186 7.075Z" fill="#262626"/><path fill-rule="evenodd" clip-rule="evenodd" d="M13.855 33.257c-6.688 16.79 1.65 35.75 18.65 42.416 17 6.665 36.264-1.474 43.097-18.206 2.44-5.982 2.965-12.71 1.64-19.022.572 5.416-.145 11.092-2.218 16.185-6.837 16.736-25.648 25.06-42.08 18.624C16.51 66.817 8.64 48.04 15.336 31.248a33.675 33.675 0 0 1 3.181-6.061 32.652 32.652 0 0 0-4.663 8.07Z" fill="#262626"/><path fill-rule="evenodd" clip-rule="evenodd" d="M15.223 31.196C9.01 46.82 17.39 64.707 33.964 71.214c16.576 6.505 35.11-.82 41.463-16.386 2.266-5.565 2.814-11.667 1.43-17.6.64 5.081-.11 10.196-2.037 14.935-6.357 15.568-24.447 23.075-40.47 16.792-16.022-6.284-23.945-23.994-17.725-39.617a30.039 30.039 0 0 1 2.987-5.628 29.033 29.033 0 0 0-4.389 7.486Z" fill="#262626"/><path fill-rule="evenodd" clip-rule="evenodd" d="m22.528 25.54.107-.107h4.336l.108.107v.24c0 1.101-.673 2.002-1.565 2.5 1.072.496 1.72 1.56 1.72 2.613v.24l-.109.107h-4.49l-.107-.106v-5.595Zm.215.106v5.381h4.275v-.134c0-1.034-.68-2.088-1.794-2.503l-.009-.195c.935-.443 1.648-1.33 1.648-2.415v-.134h-4.12Zm.579.607.107-.106h2.642l.107.117c-.129 1.173-1.284 1.835-2.231 1.835h-.518l-.107-.106v-1.74Zm.215.106v1.528h.41c.839 0 1.824-.566 2-1.528h-2.41Zm-.215 2.321.107-.106h.65c1.093 0 2.097.785 2.26 1.834l-.106.122h-2.804l-.107-.106V28.68Zm.215.107v1.53h2.566c-.202-.875-1.072-1.53-2.024-1.53h-.542Z" fill="#262626"/><path d="M25.261 28.29c.964-.456 1.71-1.376 1.71-2.51v-.24h-4.337v5.594h4.49v-.24c0-1.079-.704-2.174-1.863-2.605Zm.81-2.039c-.121 1.103-1.216 1.742-2.123 1.742h-.52V26.25h2.643Zm-2.642 2.43h.648c1.046 0 2.002.75 2.156 1.741H23.43V28.68Z" fill="#262626"/><path fill-rule="evenodd" clip-rule="evenodd" d="m29.724 25.578.1-.145h.89l.101.068 2.189 5.594-.101.145h-.89l-.1-.068-.27-.682-3.896.836-.13-.094a5.613 5.613 0 0 1-.033-.514c0-1.791 1.131-3.248 2.72-3.653l-.58-1.487Zm.257.068.567 1.456-.077.142c-1.545.337-2.671 1.73-2.671 3.474 0 .117.009.246.02.375l3.867-.83.124.065.275.7h.66l-2.105-5.382h-.66Zm-1.288 4.514 2.606-.559-.636-1.63c-1.12.232-1.873 1.088-1.97 2.19Zm-.224.13c.05-1.295.928-2.314 2.243-2.544l.12.066.713 1.829-.078.142-2.867.614-.13-.107Z" fill="#262626"/><path d="m32.904 31.134-2.189-5.595h-.89l.623 1.599c-1.597.351-2.756 1.79-2.756 3.58 0 .16.016.336.032.504l3.988-.855.3.767h.892Zm-4.329-.84c.05-1.246.892-2.221 2.157-2.445l.713 1.83-2.87.616Z" fill="#262626"/><path fill-rule="evenodd" clip-rule="evenodd" d="m33.381 25.54.108-.107h4.619l.107.107v.767l-.027.07-3.536 3.884h3.495l.108.106v.767l-.108.106h-4.742l-.107-.106v-.767l.027-.071 3.536-3.883h-3.372l-.108-.107v-.767Zm.216.106v.554h3.505l.08.177-3.669 4.03v.62h4.526v-.554h-3.628l-.08-.177L38 26.266v-.62h-4.403Z" fill="#262626"/><path d="M33.406 31.134h4.742v-.767h-3.736l3.696-4.06v-.767h-4.62v.767h3.614l-3.696 4.06v.767Z" fill="#262626"/><path fill-rule="evenodd" clip-rule="evenodd" d="m40.666 25.578.1-.145h.89l.1.068 2.19 5.594-.1.145h-.89l-.1-.068-.27-.682-3.896.836-.13-.094a5.613 5.613 0 0 1-.033-.514c0-1.79 1.131-3.248 2.718-3.653l-.58-1.488Zm.257.068.567 1.456-.078.142c-1.543.337-2.67 1.73-2.67 3.474 0 .117.01.246.021.375l3.867-.83.124.065.275.7h.66l-2.107-5.382h-.66Zm-1.288 4.514 2.606-.559-.637-1.63c-1.117.232-1.87 1.087-1.969 2.189Zm-.224.13c.05-1.295.929-2.314 2.242-2.544l.12.066.714 1.829-.078.142-2.867.614-.13-.107Z" fill="#262626"/><path d="m43.846 31.134-2.188-5.595h-.892l.624 1.599c-1.597.351-2.756 1.79-2.756 3.58 0 .16.016.336.032.504l3.988-.855.3.767h.892Zm-4.329-.84c.05-1.246.892-2.221 2.157-2.445l.713 1.83-2.87.616Z" fill="#262626"/><path fill-rule="evenodd" clip-rule="evenodd" d="m21.92 35.529.108-.106h4.86l.108.106v.767l-.108.106H24.97v4.721l-.108.106h-.809l-.108-.106v-4.72h-1.917l-.108-.107v-.767Zm.215.106v.555h1.918l.108.106v4.721h.593v-4.721l.108-.106h1.919v-.555h-4.646Z" fill="#262626"/><path d="M26.89 35.529h-4.863v.767h2.026v4.826h.81v-4.826h2.027v-.767Z" fill="#262626"/><path fill-rule="evenodd" clip-rule="evenodd" d="m27.633 35.529.108-.106h4.374l.108.106v.241c0 1.264-.637 2.231-1.606 2.795l2.014 2.492-.084.172h-.99l-.086-.04-1.777-2.24a5.027 5.027 0 0 1-1.051.16v2.014l-.108.106h-.794l-.108-.106V35.53Zm.216.106v5.382h.578v-2.011l.106-.106c.411-.01.8-.072 1.172-.174l.114.037 1.79 2.254h.715L30.37 38.6l.033-.16c.966-.518 1.605-1.44 1.605-2.67v-.135h-4.16Zm.578.591.108-.106h2.738l.107.123c-.212 1.313-1.31 2.143-2.845 2.143l-.108-.106v-2.054Zm.216.107v1.84c1.34-.037 2.269-.749 2.5-1.84h-2.5Z" fill="#262626"/><path d="M31.558 41.122h.99l-2.092-2.588c.997-.536 1.662-1.495 1.662-2.766v-.239H27.74v5.593h.794v-2.117a4.891 4.891 0 0 0 1.2-.176l1.823 2.293Zm-3.023-2.844v-2.054h2.74c-.203 1.255-1.248 2.054-2.74 2.054Z" fill="#262626"/><path fill-rule="evenodd" clip-rule="evenodd" d="m34.74 35.567.1-.144h.891l.1.068 2.19 5.594-.1.144h-.89l-.1-.067-.27-.683-3.896.837-.13-.094a5.605 5.605 0 0 1-.032-.514c0-1.791 1.13-3.248 2.718-3.653l-.58-1.488Zm.258.068.568 1.457-.078.141c-1.544.337-2.67 1.73-2.67 3.475 0 .117.01.245.02.375l3.868-.83.123.065.276.699h.66l-2.108-5.382h-.66ZM33.71 40.15l2.604-.56-.635-1.63c-1.118.233-1.871 1.088-1.97 2.19Zm-.224.13c.05-1.296.928-2.314 2.242-2.545l.12.066.713 1.83-.078.141-2.867.615-.13-.108Z" fill="#262626"/><path d="m37.921 41.122-2.188-5.593h-.892l.624 1.598c-1.597.352-2.756 1.79-2.756 3.58 0 .16.016.336.032.503l3.988-.855.3.767h.892Zm-4.328-.838c.049-1.247.89-2.222 2.156-2.446l.713 1.83-2.87.616Z" fill="#262626"/><path fill-rule="evenodd" clip-rule="evenodd" d="m38.682 35.529.107-.106h.81l.108.106v5.594l-.108.106h-.81l-.107-.106V35.53Zm.215.106v5.382h.595v-5.382h-.595Z" fill="#262626"/><path d="M38.788 35.529h.81v5.593h-.81V35.53Z" fill="#262626"/><path fill-rule="evenodd" clip-rule="evenodd" d="m40.95 35.529.108-.106h.81l.08.034 3.136 3.371V35.53l.108-.106h.81l.107.106v5.594l-.108.106h-.809l-.108-.106v-.9l-3.108-3.334v4.234l-.108.106h-.81l-.108-.106V35.53Zm.216.106v5.382h.595v-4.401l.186-.072 3.325 3.566.028.072v.835h.594v-5.382H45.3v3.466l-.187.072-3.292-3.538h-.655Z" fill="#262626"/><path d="M45.191 35.529v3.572l-3.323-3.572h-.81v5.593h.81v-4.507l3.323 3.564v.943h.811V35.53h-.81Z" fill="#262626"/><path fill-rule="evenodd" clip-rule="evenodd" d="m47.354 35.529.108-.106h3.81l.107.106v.751l-.108.106H48.38v1.458h2.646l.108.107v.75l-.108.107H48.38v1.458h2.891l.108.106v.751l-.108.106h-3.81l-.107-.106V35.53Zm.215.106v5.382h3.594v-.539h-2.891l-.108-.106v-1.67l.108-.106h2.646v-.54h-2.646l-.108-.105v-1.67l.108-.107h2.892v-.539h-3.595Z" fill="#262626"/><path d="M51.27 36.28v-.751h-3.81v5.593h3.81v-.75h-2.999v-1.67h2.756v-.751H48.27v-1.67h3Z" fill="#262626"/><path fill-rule="evenodd" clip-rule="evenodd" d="m52.38 35.529.107-.106h3.81l.107.106v.751l-.108.106h-2.892v1.458h2.648l.108.107v.75l-.108.107h-2.648v1.458h2.892l.108.106v.751l-.108.106h-3.809l-.108-.106V35.53Zm.215.106v5.382h3.594v-.539h-2.893l-.108-.106v-1.67l.108-.106h2.648v-.54h-2.648l-.108-.105v-1.67l.108-.107h2.893v-.539h-3.594Z" fill="#262626"/><path d="M56.296 36.28v-.751h-3.81v5.593h3.81v-.75h-3v-1.67h2.756v-.751h-2.756v-1.67h3Z" fill="#262626"/><path fill-rule="evenodd" clip-rule="evenodd" d="m22.447 45.518.108-.107h.81l.108.107v1.949c0 .894.274 1.583.777 2.049.504.466 1.252.723 2.227.723h.101v-4.721l.108-.107h.81l.108.107v5.594l-.108.106h-1.02c-1.262 0-2.272-.336-2.967-.981-.696-.646-1.062-1.588-1.062-2.77v-1.95Zm.216.106v1.843c0 1.138.35 2.019.993 2.615.644.597 1.595.924 2.82.924h.912v-5.382h-.594v4.72l-.108.107h-.21c-1.01 0-1.818-.266-2.374-.78-.556-.516-.845-1.266-.845-2.204v-1.843h-.595Z" fill="#262626"/><path d="M26.687 45.518v4.827h-.21c-1.987 0-3.113-1.047-3.113-2.877v-1.95h-.81v1.95c0 2.317 1.434 3.644 3.922 3.644h1.022v-5.594h-.81Z" fill="#262626"/><path fill-rule="evenodd" clip-rule="evenodd" d="m28.85 45.518.107-.107h.794l.108.107v2.34h.51c.652 0 1.182-.203 1.55-.59.367-.386.585-.969.585-1.75l.107-.107h.811l.108.107c0 1.17-.464 2.273-1.436 2.755 1.038.488 1.548 1.616 1.548 2.839l-.107.106h-.811l-.108-.106c0-.692-.198-1.276-.573-1.684-.373-.408-.93-.654-1.675-.654h-.51v2.338l-.107.106h-.794l-.108-.106v-5.594Zm.215.106v5.382h.578v-2.338l.108-.106h.617c.795 0 1.415.264 1.835.723.398.435.608 1.034.627 1.72h.596c-.031-1.215-.591-2.261-1.644-2.63l-.001-.2c.987-.357 1.503-1.38 1.532-2.551h-.595c-.02.768-.245 1.372-.643 1.79-.416.437-1.007.657-1.707.657h-.617l-.108-.106v-2.341h-.578Z" fill="#262626"/><path d="M31.817 48.275c1.079-.391 1.605-1.518 1.605-2.757h-.81c0 1.598-.892 2.445-2.245 2.445h-.616v-2.445h-.795v5.594h.795v-2.445h.616c1.54 0 2.358 1.023 2.358 2.445h.811c0-1.287-.576-2.438-1.719-2.837Z" fill="#262626"/><path fill-rule="evenodd" clip-rule="evenodd" d="m34.523 45.518.108-.107h4.374l.108.107v.24c0 1.265-.636 2.232-1.607 2.795l2.014 2.493-.084.172h-.99l-.084-.04-1.78-2.24a5.003 5.003 0 0 1-1.05.16v2.014l-.108.106h-.793l-.108-.106v-5.594Zm.216.106v5.382h.577v-2.011l.106-.106c.412-.01.802-.072 1.172-.174l.114.037 1.791 2.254h.713l-1.953-2.417.033-.16c.968-.518 1.605-1.44 1.605-2.67v-.135H34.74Zm.577.591.108-.106h2.74l.106.123c-.213 1.313-1.312 2.143-2.846 2.143l-.108-.106v-2.054Zm.216.106v1.84c1.34-.036 2.269-.748 2.503-1.84h-2.503Z" fill="#262626"/><path d="M38.448 51.112h.989l-2.091-2.59c.996-.535 1.66-1.494 1.66-2.764v-.24H34.63v5.594h.794v-2.118a4.889 4.889 0 0 0 1.2-.175l1.824 2.293Zm-3.024-2.845v-2.054h2.74c-.203 1.255-1.248 2.054-2.74 2.054Z" fill="#262626"/><path fill-rule="evenodd" clip-rule="evenodd" d="m41.63 45.556.1-.145h.891l.1.068 2.189 5.595-.1.144h-.891l-.1-.068-.269-.682-3.896.836-.13-.093a5.325 5.325 0 0 1-.033-.514c0-1.792 1.13-3.249 2.719-3.654l-.58-1.487Zm.258.068.567 1.456-.077.142c-1.546.337-2.672 1.73-2.672 3.475 0 .116.01.245.021.374l3.868-.83.123.066.275.699h.66l-2.106-5.382h-.66ZM40.6 50.138l2.605-.558-.636-1.63c-1.119.231-1.871 1.087-1.97 2.188Zm-.224.13c.05-1.295.928-2.313 2.242-2.544l.12.066.714 1.829-.078.142-2.868.615-.13-.108Z" fill="#262626"/><path d="m44.81 51.112-2.188-5.594h-.891l.623 1.598c-1.597.352-2.756 1.79-2.756 3.58 0 .16.017.336.033.504l3.988-.855.3.767h.891Zm-4.328-.84c.049-1.246.892-2.221 2.156-2.444l.714 1.829-2.87.616Z" fill="#262626"/><path fill-rule="evenodd" clip-rule="evenodd" d="m45.57 45.518.108-.107h.81l.108.107v5.594l-.107.106h-.81l-.108-.106v-5.594Zm.216.106v5.382h.595v-5.382h-.595Z" fill="#262626"/><path d="M45.678 45.518h.81v5.594h-.81v-5.594Z" fill="#262626"/><path fill-rule="evenodd" clip-rule="evenodd" d="m47.84 45.518.107-.107h.811l.08.035 3.136 3.371v-3.3l.108-.106h.81l.108.107v5.594l-.108.106h-.81l-.108-.106v-.9l-3.108-3.335v4.235l-.108.106h-.811l-.108-.106v-5.594Zm.215.106v5.382h.595v-4.401l.187-.072 3.324 3.566.029.072v.835h.594v-5.382h-.594v3.466l-.187.072-3.292-3.538h-.656Z" fill="#262626"/><path d="M52.081 45.518v3.572l-3.323-3.572h-.811v5.594h.811v-4.507l3.323 3.564v.943h.81v-5.594h-.81Z" fill="#262626"/><path fill-rule="evenodd" clip-rule="evenodd" d="m54.243 45.518.108-.107h3.81l.107.107v.75l-.108.107H55.27v1.458h2.647l.108.106v.751l-.108.107h-2.647v1.457h2.891l.108.107v.75l-.108.107h-3.81l-.107-.106v-5.594Zm.215.106v5.382h3.594v-.54h-2.891l-.108-.105v-1.67l.108-.107h2.647v-.539h-2.647l-.108-.106v-1.67l.108-.106h2.891v-.54h-3.594Z" fill="#262626"/><path d="M58.16 46.269v-.751h-3.81v5.594h3.81v-.751h-3v-1.67h2.757v-.752H55.16v-1.67h2.998Z" fill="#262626"/></g></symbol><symbol id="logo-footer" viewBox="0 0 78 78"><g fill="none"><path fill-rule="evenodd" clip-rule="evenodd" d="M43.96 64.991c15.85-2.854 26.216-18.81 23.193-35.695C64.13 12.413 48.853.956 32.98 3.666c-5.674.971-10.907 3.704-15.047 7.854a28.5 28.5 0 0 1 13.179-6.003c15.879-2.708 31.08 8.294 34.007 24.611 2.927 16.318-7.522 31.812-23.377 34.659a28.449 28.449 0 0 1-6.085.415c2.774.349 5.57.277 8.305-.21Z" fill="#fcfcfc"/><path fill-rule="evenodd" clip-rule="evenodd" d="M49.542 64.995c18-3.223 29.971-20.187 26.78-37.948C73.129 9.287 55.974-2.587 37.947.485c-6.442 1.101-12.43 4.167-17.18 8.599 4.371-3.33 9.554-5.681 15.038-6.622 18.031-3.07 35.108 8.325 38.199 25.49 3.09 17.166-8.967 33.642-26.975 36.859a34.874 34.874 0 0 1-6.902.52c3.139.33 6.308.216 9.415-.335Z" fill="#fcfcfc"/><path fill-rule="evenodd" clip-rule="evenodd" d="M47.045 64.933c16.743-3.008 27.768-19.443 24.662-36.764C68.6 10.848 52.533-.841 35.764 2.019 29.77 3.045 24.232 5.79 19.84 10.072c4.046-3.211 8.84-5.266 13.942-6.141 16.774-2.86 32.764 8.362 35.772 25.101 3.007 16.74-8.102 32.7-24.85 35.702-2.12.374-4.275.527-6.428.456 2.927.344 5.88.258 8.768-.257Z" fill="#fcfcfc"/><path fill-rule="evenodd" clip-rule="evenodd" d="M61.225 24.022C50.7 11.998 31.493 11.272 18.261 22.397 5.03 33.523 2.753 52.315 13.167 64.433c3.725 4.33 8.767 7.394 14.493 8.81-4.652-1.671-8.754-4.477-11.928-8.16C5.32 52.957 7.236 34.462 20.02 23.704c12.786-10.756 31.63-9.725 42.151 2.307a27.731 27.731 0 0 1 3.448 4.962 26.8 26.8 0 0 0-4.393-6.952Z" fill="#fcfcfc"/><path fill-rule="evenodd" clip-rule="evenodd" d="M58.4 19.277C46.462 5.61 25.563 4.03 11.65 15.744-2.264 27.458-3.954 48.057 7.867 61.822c4.228 4.919 9.935 8.378 16.216 10.169-5.125-2.028-9.8-5.165-13.402-9.35C-1.139 48.87.172 28.58 13.614 17.256c13.442-11.325 33.96-9.425 45.897 4.25a33.831 33.831 0 0 1 3.952 5.603 32.731 32.731 0 0 0-5.063-7.832Z" fill="#fcfcfc"/><path fill-rule="evenodd" clip-rule="evenodd" d="M59.612 21.43C48.495 8.724 28.538 7.68 14.968 19.098 1.398 30.516-.682 50.096 10.318 62.9c3.933 4.574 8.877 7.757 14.847 9.32-4.86-1.813-8.823-4.712-12.173-8.604-11-12.81-9.291-32.088 3.82-43.126 13.115-11.039 32.7-9.684 43.812 3.031a30.097 30.097 0 0 1 3.654 5.23 29.101 29.101 0 0 0-4.666-7.32Z" fill="#fcfcfc"/><path fill-rule="evenodd" clip-rule="evenodd" d="M16.794 28.58c-5.874 14.79 2.437 31.876 18.592 38.222 16.154 6.345 34.075-.438 40.086-15.174 2.144-5.269 2.54-11.095 1.14-16.749a27.57 27.57 0 0 1-1.756 14.208c-6.016 14.74-23.501 21.7-39.117 15.572-15.615-6.129-23.484-23.041-17.601-37.833.748-1.869 1.7-3.652 2.842-5.321a26.783 26.783 0 0 0-4.186 7.075Z" fill="#fcfcfc"/><path fill-rule="evenodd" clip-rule="evenodd" d="M13.855 33.257c-6.688 16.79 1.65 35.75 18.65 42.416 17 6.665 36.264-1.474 43.097-18.206 2.44-5.982 2.965-12.71 1.64-19.022.572 5.416-.145 11.092-2.218 16.185-6.837 16.736-25.648 25.06-42.08 18.624C16.51 66.817 8.64 48.04 15.336 31.248a33.675 33.675 0 0 1 3.181-6.061 32.652 32.652 0 0 0-4.663 8.07Z" fill="#fcfcfc"/><path fill-rule="evenodd" clip-rule="evenodd" d="M15.223 31.196C9.01 46.82 17.39 64.707 33.964 71.214c16.576 6.505 35.11-.82 41.463-16.386 2.266-5.565 2.814-11.667 1.43-17.6.64 5.081-.11 10.196-2.037 14.935-6.357 15.568-24.447 23.075-40.47 16.792-16.022-6.284-23.945-23.994-17.725-39.617a30.039 30.039 0 0 1 2.987-5.628 29.033 29.033 0 0 0-4.389 7.486Z" fill="#fcfcfc"/><path fill-rule="evenodd" clip-rule="evenodd" d="m22.528 25.54.107-.107h4.336l.108.107v.24c0 1.101-.673 2.002-1.565 2.5 1.072.496 1.72 1.56 1.72 2.613v.24l-.109.107h-4.49l-.107-.106v-5.595Zm.215.106v5.381h4.275v-.134c0-1.034-.68-2.088-1.794-2.503l-.009-.195c.935-.443 1.648-1.33 1.648-2.415v-.134h-4.12Zm.579.607.107-.106h2.642l.107.117c-.129 1.173-1.284 1.835-2.231 1.835h-.518l-.107-.106v-1.74Zm.215.106v1.528h.41c.839 0 1.824-.566 2-1.528h-2.41Zm-.215 2.321.107-.106h.65c1.093 0 2.097.785 2.26 1.834l-.106.122h-2.804l-.107-.106V28.68Zm.215.107v1.53h2.566c-.202-.875-1.072-1.53-2.024-1.53h-.542Z" fill="#fcfcfc"/><path d="M25.261 28.29c.964-.456 1.71-1.376 1.71-2.51v-.24h-4.337v5.594h4.49v-.24c0-1.079-.704-2.174-1.863-2.605Zm.81-2.039c-.121 1.103-1.216 1.742-2.123 1.742h-.52V26.25h2.643Zm-2.642 2.43h.648c1.046 0 2.002.75 2.156 1.741H23.43V28.68Z" fill="#fcfcfc"/><path fill-rule="evenodd" clip-rule="evenodd" d="m29.724 25.578.1-.145h.89l.101.068 2.189 5.594-.101.145h-.89l-.1-.068-.27-.682-3.896.836-.13-.094a5.613 5.613 0 0 1-.033-.514c0-1.791 1.131-3.248 2.72-3.653l-.58-1.487Zm.257.068.567 1.456-.077.142c-1.545.337-2.671 1.73-2.671 3.474 0 .117.009.246.02.375l3.867-.83.124.065.275.7h.66l-2.105-5.382h-.66Zm-1.288 4.514 2.606-.559-.636-1.63c-1.12.232-1.873 1.088-1.97 2.19Zm-.224.13c.05-1.295.928-2.314 2.243-2.544l.12.066.713 1.829-.078.142-2.867.614-.13-.107Z" fill="#fcfcfc"/><path d="m32.904 31.134-2.189-5.595h-.89l.623 1.599c-1.597.351-2.756 1.79-2.756 3.58 0 .16.016.336.032.504l3.988-.855.3.767h.892Zm-4.329-.84c.05-1.246.892-2.221 2.157-2.445l.713 1.83-2.87.616Z" fill="#fcfcfc"/><path fill-rule="evenodd" clip-rule="evenodd" d="m33.381 25.54.108-.107h4.619l.107.107v.767l-.027.07-3.536 3.884h3.495l.108.106v.767l-.108.106h-4.742l-.107-.106v-.767l.027-.071 3.536-3.883h-3.372l-.108-.107v-.767Zm.216.106v.554h3.505l.08.177-3.669 4.03v.62h4.526v-.554h-3.628l-.08-.177L38 26.266v-.62h-4.403Z" fill="#fcfcfc"/><path d="M33.406 31.134h4.742v-.767h-3.736l3.696-4.06v-.767h-4.62v.767h3.614l-3.696 4.06v.767Z" fill="#fcfcfc"/><path fill-rule="evenodd" clip-rule="evenodd" d="m40.666 25.578.1-.145h.89l.1.068 2.19 5.594-.1.145h-.89l-.1-.068-.27-.682-3.896.836-.13-.094a5.613 5.613 0 0 1-.033-.514c0-1.79 1.131-3.248 2.718-3.653l-.58-1.488Zm.257.068.567 1.456-.078.142c-1.543.337-2.67 1.73-2.67 3.474 0 .117.01.246.021.375l3.867-.83.124.065.275.7h.66l-2.107-5.382h-.66Zm-1.288 4.514 2.606-.559-.637-1.63c-1.117.232-1.87 1.087-1.969 2.189Zm-.224.13c.05-1.295.929-2.314 2.242-2.544l.12.066.714 1.829-.078.142-2.867.614-.13-.107Z" fill="#fcfcfc"/><path d="m43.846 31.134-2.188-5.595h-.892l.624 1.599c-1.597.351-2.756 1.79-2.756 3.58 0 .16.016.336.032.504l3.988-.855.3.767h.892Zm-4.329-.84c.05-1.246.892-2.221 2.157-2.445l.713 1.83-2.87.616Z" fill="#fcfcfc"/><path fill-rule="evenodd" clip-rule="evenodd" d="m21.92 35.529.108-.106h4.86l.108.106v.767l-.108.106H24.97v4.721l-.108.106h-.809l-.108-.106v-4.72h-1.917l-.108-.107v-.767Zm.215.106v.555h1.918l.108.106v4.721h.593v-4.721l.108-.106h1.919v-.555h-4.646Z" fill="#fcfcfc"/><path d="M26.89 35.529h-4.863v.767h2.026v4.826h.81v-4.826h2.027v-.767Z" fill="#fcfcfc"/><path fill-rule="evenodd" clip-rule="evenodd" d="m27.633 35.529.108-.106h4.374l.108.106v.241c0 1.264-.637 2.231-1.606 2.795l2.014 2.492-.084.172h-.99l-.086-.04-1.777-2.24a5.027 5.027 0 0 1-1.051.16v2.014l-.108.106h-.794l-.108-.106V35.53Zm.216.106v5.382h.578v-2.011l.106-.106c.411-.01.8-.072 1.172-.174l.114.037 1.79 2.254h.715L30.37 38.6l.033-.16c.966-.518 1.605-1.44 1.605-2.67v-.135h-4.16Zm.578.591.108-.106h2.738l.107.123c-.212 1.313-1.31 2.143-2.845 2.143l-.108-.106v-2.054Zm.216.107v1.84c1.34-.037 2.269-.749 2.5-1.84h-2.5Z" fill="#fcfcfc"/><path d="M31.558 41.122h.99l-2.092-2.588c.997-.536 1.662-1.495 1.662-2.766v-.239H27.74v5.593h.794v-2.117a4.891 4.891 0 0 0 1.2-.176l1.823 2.293Zm-3.023-2.844v-2.054h2.74c-.203 1.255-1.248 2.054-2.74 2.054Z" fill="#fcfcfc"/><path fill-rule="evenodd" clip-rule="evenodd" d="m34.74 35.567.1-.144h.891l.1.068 2.19 5.594-.1.144h-.89l-.1-.067-.27-.683-3.896.837-.13-.094a5.605 5.605 0 0 1-.032-.514c0-1.791 1.13-3.248 2.718-3.653l-.58-1.488Zm.258.068.568 1.457-.078.141c-1.544.337-2.67 1.73-2.67 3.475 0 .117.01.245.02.375l3.868-.83.123.065.276.699h.66l-2.108-5.382h-.66ZM33.71 40.15l2.604-.56-.635-1.63c-1.118.233-1.871 1.088-1.97 2.19Zm-.224.13c.05-1.296.928-2.314 2.242-2.545l.12.066.713 1.83-.078.141-2.867.615-.13-.108Z" fill="#fcfcfc"/><path d="m37.921 41.122-2.188-5.593h-.892l.624 1.598c-1.597.352-2.756 1.79-2.756 3.58 0 .16.016.336.032.503l3.988-.855.3.767h.892Zm-4.328-.838c.049-1.247.89-2.222 2.156-2.446l.713 1.83-2.87.616Z" fill="#fcfcfc"/><path fill-rule="evenodd" clip-rule="evenodd" d="m38.682 35.529.107-.106h.81l.108.106v5.594l-.108.106h-.81l-.107-.106V35.53Zm.215.106v5.382h.595v-5.382h-.595Z" fill="#fcfcfc"/><path d="M38.788 35.529h.81v5.593h-.81V35.53Z" fill="#fcfcfc"/><path fill-rule="evenodd" clip-rule="evenodd" d="m40.95 35.529.108-.106h.81l.08.034 3.136 3.371V35.53l.108-.106h.81l.107.106v5.594l-.108.106h-.809l-.108-.106v-.9l-3.108-3.334v4.234l-.108.106h-.81l-.108-.106V35.53Zm.216.106v5.382h.595v-4.401l.186-.072 3.325 3.566.028.072v.835h.594v-5.382H45.3v3.466l-.187.072-3.292-3.538h-.655Z" fill="#fcfcfc"/><path d="M45.191 35.529v3.572l-3.323-3.572h-.81v5.593h.81v-4.507l3.323 3.564v.943h.811V35.53h-.81Z" fill="#fcfcfc"/><path fill-rule="evenodd" clip-rule="evenodd" d="m47.354 35.529.108-.106h3.81l.107.106v.751l-.108.106H48.38v1.458h2.646l.108.107v.75l-.108.107H48.38v1.458h2.891l.108.106v.751l-.108.106h-3.81l-.107-.106V35.53Zm.215.106v5.382h3.594v-.539h-2.891l-.108-.106v-1.67l.108-.106h2.646v-.54h-2.646l-.108-.105v-1.67l.108-.107h2.892v-.539h-3.595Z" fill="#fcfcfc"/><path d="M51.27 36.28v-.751h-3.81v5.593h3.81v-.75h-2.999v-1.67h2.756v-.751H48.27v-1.67h3Z" fill="#fcfcfc"/><path fill-rule="evenodd" clip-rule="evenodd" d="m52.38 35.529.107-.106h3.81l.107.106v.751l-.108.106h-2.892v1.458h2.648l.108.107v.75l-.108.107h-2.648v1.458h2.892l.108.106v.751l-.108.106h-3.809l-.108-.106V35.53Zm.215.106v5.382h3.594v-.539h-2.893l-.108-.106v-1.67l.108-.106h2.648v-.54h-2.648l-.108-.105v-1.67l.108-.107h2.893v-.539h-3.594Z" fill="#fcfcfc"/><path d="M56.296 36.28v-.751h-3.81v5.593h3.81v-.75h-3v-1.67h2.756v-.751h-2.756v-1.67h3Z" fill="#fcfcfc"/><path fill-rule="evenodd" clip-rule="evenodd" d="m22.447 45.518.108-.107h.81l.108.107v1.949c0 .894.274 1.583.777 2.049.504.466 1.252.723 2.227.723h.101v-4.721l.108-.107h.81l.108.107v5.594l-.108.106h-1.02c-1.262 0-2.272-.336-2.967-.981-.696-.646-1.062-1.588-1.062-2.77v-1.95Zm.216.106v1.843c0 1.138.35 2.019.993 2.615.644.597 1.595.924 2.82.924h.912v-5.382h-.594v4.72l-.108.107h-.21c-1.01 0-1.818-.266-2.374-.78-.556-.516-.845-1.266-.845-2.204v-1.843h-.595Z" fill="#fcfcfc"/><path d="M26.687 45.518v4.827h-.21c-1.987 0-3.113-1.047-3.113-2.877v-1.95h-.81v1.95c0 2.317 1.434 3.644 3.922 3.644h1.022v-5.594h-.81Z" fill="#fcfcfc"/><path fill-rule="evenodd" clip-rule="evenodd" d="m28.85 45.518.107-.107h.794l.108.107v2.34h.51c.652 0 1.182-.203 1.55-.59.367-.386.585-.969.585-1.75l.107-.107h.811l.108.107c0 1.17-.464 2.273-1.436 2.755 1.038.488 1.548 1.616 1.548 2.839l-.107.106h-.811l-.108-.106c0-.692-.198-1.276-.573-1.684-.373-.408-.93-.654-1.675-.654h-.51v2.338l-.107.106h-.794l-.108-.106v-5.594Zm.215.106v5.382h.578v-2.338l.108-.106h.617c.795 0 1.415.264 1.835.723.398.435.608 1.034.627 1.72h.596c-.031-1.215-.591-2.261-1.644-2.63l-.001-.2c.987-.357 1.503-1.38 1.532-2.551h-.595c-.02.768-.245 1.372-.643 1.79-.416.437-1.007.657-1.707.657h-.617l-.108-.106v-2.341h-.578Z" fill="#fcfcfc"/><path d="M31.817 48.275c1.079-.391 1.605-1.518 1.605-2.757h-.81c0 1.598-.892 2.445-2.245 2.445h-.616v-2.445h-.795v5.594h.795v-2.445h.616c1.54 0 2.358 1.023 2.358 2.445h.811c0-1.287-.576-2.438-1.719-2.837Z" fill="#fcfcfc"/><path fill-rule="evenodd" clip-rule="evenodd" d="m34.523 45.518.108-.107h4.374l.108.107v.24c0 1.265-.636 2.232-1.607 2.795l2.014 2.493-.084.172h-.99l-.084-.04-1.78-2.24a5.003 5.003 0 0 1-1.05.16v2.014l-.108.106h-.793l-.108-.106v-5.594Zm.216.106v5.382h.577v-2.011l.106-.106c.412-.01.802-.072 1.172-.174l.114.037 1.791 2.254h.713l-1.953-2.417.033-.16c.968-.518 1.605-1.44 1.605-2.67v-.135H34.74Zm.577.591.108-.106h2.74l.106.123c-.213 1.313-1.312 2.143-2.846 2.143l-.108-.106v-2.054Zm.216.106v1.84c1.34-.036 2.269-.748 2.503-1.84h-2.503Z" fill="#fcfcfc"/><path d="M38.448 51.112h.989l-2.091-2.59c.996-.535 1.66-1.494 1.66-2.764v-.24H34.63v5.594h.794v-2.118a4.889 4.889 0 0 0 1.2-.175l1.824 2.293Zm-3.024-2.845v-2.054h2.74c-.203 1.255-1.248 2.054-2.74 2.054Z" fill="#fcfcfc"/><path fill-rule="evenodd" clip-rule="evenodd" d="m41.63 45.556.1-.145h.891l.1.068 2.189 5.595-.1.144h-.891l-.1-.068-.269-.682-3.896.836-.13-.093a5.325 5.325 0 0 1-.033-.514c0-1.792 1.13-3.249 2.719-3.654l-.58-1.487Zm.258.068.567 1.456-.077.142c-1.546.337-2.672 1.73-2.672 3.475 0 .116.01.245.021.374l3.868-.83.123.066.275.699h.66l-2.106-5.382h-.66ZM40.6 50.138l2.605-.558-.636-1.63c-1.119.231-1.871 1.087-1.97 2.188Zm-.224.13c.05-1.295.928-2.313 2.242-2.544l.12.066.714 1.829-.078.142-2.868.615-.13-.108Z" fill="#fcfcfc"/><path d="m44.81 51.112-2.188-5.594h-.891l.623 1.598c-1.597.352-2.756 1.79-2.756 3.58 0 .16.017.336.033.504l3.988-.855.3.767h.891Zm-4.328-.84c.049-1.246.892-2.221 2.156-2.444l.714 1.829-2.87.616Z" fill="#fcfcfc"/><path fill-rule="evenodd" clip-rule="evenodd" d="m45.57 45.518.108-.107h.81l.108.107v5.594l-.107.106h-.81l-.108-.106v-5.594Zm.216.106v5.382h.595v-5.382h-.595Z" fill="#fcfcfc"/><path d="M45.678 45.518h.81v5.594h-.81v-5.594Z" fill="#fcfcfc"/><path fill-rule="evenodd" clip-rule="evenodd" d="m47.84 45.518.107-.107h.811l.08.035 3.136 3.371v-3.3l.108-.106h.81l.108.107v5.594l-.108.106h-.81l-.108-.106v-.9l-3.108-3.335v4.235l-.108.106h-.811l-.108-.106v-5.594Zm.215.106v5.382h.595v-4.401l.187-.072 3.324 3.566.029.072v.835h.594v-5.382h-.594v3.466l-.187.072-3.292-3.538h-.656Z" fill="#fcfcfc"/><path d="M52.081 45.518v3.572l-3.323-3.572h-.811v5.594h.811v-4.507l3.323 3.564v.943h.81v-5.594h-.81Z" fill="#fcfcfc"/><path fill-rule="evenodd" clip-rule="evenodd" d="m54.243 45.518.108-.107h3.81l.107.107v.75l-.108.107H55.27v1.458h2.647l.108.106v.751l-.108.107h-2.647v1.457h2.891l.108.107v.75l-.108.107h-3.81l-.107-.106v-5.594Zm.215.106v5.382h3.594v-.54h-2.891l-.108-.105v-1.67l.108-.107h2.647v-.539h-2.647l-.108-.106v-1.67l.108-.106h2.891v-.54h-3.594Z" fill="#fcfcfc"/><path d="M58.16 46.269v-.751h-3.81v5.594h3.81v-.751h-3v-1.67h2.757v-.752H55.16v-1.67h2.998Z" fill="#fcfcfc"/></g></symbol><symbol id="magnifier"><g fill="none"><path d="M11 19a8 8 0 1 0 0-16 8 8 0 0 0 0 16Zm10 2-4.35-4.35" stroke="#464646" stroke-width="2" stroke-linecap="round" stroke-linejoin="round"/></g></symbol><symbol id="mail" viewBox="0 0 24 24"><g fill="none"><path d="M4 4h16c1.1 0 2 .9 2 2v12c0 1.1-.9 2-2 2H4c-1.1 0-2-.9-2-2V6c0-1.1.9-2 2-2Z" stroke="#FCFCFC" stroke-width="1.5" stroke-linecap="round" stroke-linejoin="round"/><path d="m22 6-10 7L2 6" stroke="#FCFCFC" stroke-width="1.5" stroke-linecap="round" stroke-linejoin="round"/></g></symbol><symbol id="phone"><g fill="none"><path d="M21 15.92v3a1.998 1.998 0 0 1-2.18 2 19.791 19.791 0 0 1-8.63-3.07 19.5 19.5 0 0 1-6-6 19.79 19.79 0 0 1-3.07-8.67A2 2 0 0 1 3.11 1h3a2 2 0 0 1 2 1.72c.127.96.361 1.903.7 2.81a2 2 0 0 1-.45 2.11L7.09 8.91a16 16 0 0 0 6 6l1.27-1.27a2 2 0 0 1 2.11-.45c.907.339 1.85.574 2.81.7A2 2 0 0 1 21 15.92Z" stroke="#FCFCFC" stroke-width="1.5" stroke-linecap="round" stroke-linejoin="round"/></g></symbol><symbol id="right-arrow"><g fill="none"><path d="m3.4 25.133 11.233-11.2c.134-.133.228-.277.284-.433.056-.155.084-.322.083-.5 0-.178-.028-.344-.083-.5-.055-.155-.15-.3-.284-.433L3.4.833C3.089.523 2.7.367 2.233.367c-.466 0-.866.166-1.2.5-.333.333-.5.722-.5 1.166 0 .445.167.834.5 1.167l9.8 9.8-9.8 9.8a1.564 1.564 0 0 0-.466 1.15c0 .457.166.85.5 1.183.333.334.722.5 1.166.5.445 0 .834-.166 1.167-.5Z" fill="#101010"/></g></symbol><symbol id="start-icon"><g fill="none"><path d="M19 4H5a2 2 0 0 0-2 2v14a2 2 0 0 0 2 2h14a2 2 0 0 0 2-2V6a2 2 0 0 0-2-2Zm-3-2v4M8 2v4m-5 4h18" stroke="#FCFCFC" stroke-width="1.5" stroke-linecap="round" stroke-linejoin="round"/></g></symbol><symbol id="time-icon"><g fill="none"><path d="M12 22c5.523 0 10-4.477 10-10S17.523 2 12 2 2 6.477 2 12s4.477 10 10 10Z" stroke="#FCFCFC" stroke-width="1.5" stroke-linecap="round" stroke-linejoin="round"/><path d="M12 6v6l4 2" stroke="#FCFCFC" stroke-width="1.5" stroke-linecap="round" stroke-linejoin="round"/></g></symbol></svg>