<svg width="15" height="26" viewBox="0 0 15 26" fill="none" xmlns="http://www.w3.org/2000/svg">
<path d="M3.39998 25.1334L14.6333 13.9334C14.7666 13.8 14.8613 13.6556 14.9173 13.5C14.9733 13.3445 15.0009 13.1778 15 13C15 12.8223 14.9724 12.6556 14.9173 12.5C14.8622 12.3445 14.7675 12.2 14.6333 12.0667L3.39998 0.833366C3.08887 0.522255 2.69998 0.366699 2.23331 0.366699C1.76665 0.366699 1.36665 0.533366 1.03331 0.866699C0.69998 1.20003 0.533313 1.58892 0.533313 2.03337C0.533313 2.47781 0.69998 2.8667 1.03331 3.20003L10.8333 13L1.03331 22.8C0.722202 23.1111 0.566646 23.4947 0.566646 23.9507C0.566646 24.4067 0.733313 24.8009 1.06665 25.1334C1.39998 25.4667 1.78887 25.6334 2.23331 25.6334C2.67776 25.6334 3.06665 25.4667 3.39998 25.1334Z" fill="#101010"/>
</svg>
