<svg width="15" height="26" viewBox="0 0 15 26" fill="none" xmlns="http://www.w3.org/2000/svg">
<path d="M11.6 25.1334L0.366687 13.9334C0.233354 13.8 0.138687 13.6556 0.0826872 13.5C0.0266872 13.3445 -0.000868055 13.1778 2.08335e-05 13C2.08335e-05 12.8223 0.0275761 12.6556 0.0826872 12.5C0.137798 12.3445 0.232465 12.2 0.366687 12.0667L11.6 0.833366C11.9111 0.522255 12.3 0.366699 12.7667 0.366699C13.2334 0.366699 13.6334 0.533366 13.9667 0.866699C14.3 1.20003 14.4667 1.58892 14.4667 2.03337C14.4667 2.47781 14.3 2.8667 13.9667 3.20003L4.16669 13L13.9667 22.8C14.2778 23.1111 14.4334 23.4947 14.4334 23.9507C14.4334 24.4067 14.2667 24.8009 13.9334 25.1334C13.6 25.4667 13.2111 25.6334 12.7667 25.6334C12.3222 25.6334 11.9334 25.4667 11.6 25.1334Z" fill="#101010"/>
</svg>
