<svg width="14" height="15" viewBox="0 0 14 15" fill="none" xmlns="http://www.w3.org/2000/svg">
<path d="M7.00005 8.8998L2.10005 13.7998C1.91672 13.9831 1.68338 14.0748 1.40005 14.0748C1.11672 14.0748 0.883382 13.9831 0.700048 13.7998C0.516715 13.6165 0.425049 13.3831 0.425049 13.0998C0.425049 12.8165 0.516715 12.5831 0.700048 12.3998L5.60005 7.4998L0.700048 2.5998C0.516715 2.41647 0.425049 2.18314 0.425049 1.8998C0.425049 1.61647 0.516715 1.38314 0.700048 1.1998C0.883382 1.01647 1.11672 0.924805 1.40005 0.924805C1.68338 0.924805 1.91672 1.01647 2.10005 1.1998L7.00005 6.0998L11.9 1.1998C12.0834 1.01647 12.3167 0.924805 12.6 0.924805C12.8834 0.924805 13.1167 1.01647 13.3 1.1998C13.4834 1.38314 13.575 1.61647 13.575 1.8998C13.575 2.18314 13.4834 2.41647 13.3 2.5998L8.40005 7.4998L13.3 12.3998C13.4834 12.5831 13.575 12.8165 13.575 13.0998C13.575 13.3831 13.4834 13.6165 13.3 13.7998C13.1167 13.9831 12.8834 14.0748 12.6 14.0748C12.3167 14.0748 12.0834 13.9831 11.9 13.7998L7.00005 8.8998Z" fill="#FCFCFC"/>
</svg>
