<svg width="20" height="20" viewBox="0 0 20 20" fill="none" xmlns="http://www.w3.org/2000/svg">
<path d="M14.5521 19.752C14.0931 19.752 13.6311 19.69 13.1751 19.565C7.01011 17.873 2.12909 12.995 0.436095 6.83405C0.0510948 5.43305 0.262042 3.97304 1.03204 2.72504C1.80504 1.47104 3.0761 0.586037 4.5191 0.298037C5.4791 0.106037 6.4281 0.534044 6.9151 1.35504L8.47809 3.99503C9.23709 5.27703 8.85996 6.92803 7.61896 7.75403L6.4881 8.50605C7.5451 10.676 9.32295 12.459 11.4839 13.515L12.2462 12.378C13.0772 11.139 14.7281 10.768 16.0091 11.531L18.6522 13.107C19.4702 13.595 19.8931 14.55 19.7071 15.482C19.4191 16.925 18.5341 18.196 17.2811 18.969C16.4391 19.487 15.5021 19.752 14.5521 19.752ZM4.97809 1.75003C4.92909 1.75003 4.87911 1.75505 4.83111 1.76505C3.77711 1.97605 2.86412 2.61103 2.31012 3.51203C1.76112 4.40203 1.61009 5.44104 1.88409 6.43604C3.43709 12.089 7.91608 16.566 13.5721 18.118C14.5681 18.391 15.604 18.239 16.493 17.691C17.393 17.136 18.0291 16.222 18.2361 15.186C18.2981 14.875 18.1571 14.556 17.8831 14.393L15.241 12.817C14.646 12.463 13.878 12.636 13.492 13.211L12.377 14.876C12.177 15.174 11.7911 15.288 11.4651 15.15C8.50215 13.911 6.09113 11.495 4.85113 8.52103C4.71313 8.18903 4.82899 7.80703 5.12799 7.60803L6.78912 6.50302C7.36512 6.12002 7.54007 5.35303 7.18707 4.75803L5.62408 2.11902C5.48708 1.88702 5.23909 1.75003 4.97809 1.75003Z" fill="white"/>
</svg>
