<svg width="48" height="48" viewBox="0 0 48 48" fill="none" xmlns="http://www.w3.org/2000/svg">
<path d="M44.4468 0H3.54374C1.58437 0 0 1.54688 0 3.45938V44.5312C0 46.4438 1.58437 48 3.54374 48H44.4468C46.4062 48 48 46.4438 48 44.5406V3.45938C48 1.54688 46.4062 0 44.4468 0ZM14.2406 40.9032H7.11562V17.9906H14.2406V40.9032ZM10.6781 14.8688C8.39062 14.8688 6.54376 13.0219 6.54376 10.7437C6.54376 8.46562 8.39062 6.61874 10.6781 6.61874C12.9563 6.61874 14.8031 8.46562 14.8031 10.7437C14.8031 13.0125 12.9563 14.8688 10.6781 14.8688ZM40.9032 40.9032H33.7874V29.7656C33.7874 27.1124 33.7406 23.6906 30.0844 23.6906C26.3812 23.6906 25.8188 26.5874 25.8188 29.5782V40.9032H18.7125V17.9906H25.5374V21.1218H25.6312C26.5782 19.3219 28.9032 17.4188 32.3626 17.4188C39.5718 17.4188 40.9032 22.1626 40.9032 28.3312V40.9032Z" fill="#FFD210"/>
</svg>
