<svg width="130" height="132" viewBox="0 0 130 132" fill="none" xmlns="http://www.w3.org/2000/svg">
<g filter="url(#filter0_d_3274_4392)">
<path fill-rule="evenodd" clip-rule="evenodd" d="M72.7591 103.319C97.548 98.782 113.762 73.4159 109.035 46.5733C104.305 19.7335 80.4108 1.51868 55.583 5.82665C46.7084 7.37229 38.5227 11.7157 32.0478 18.3139C38.0185 13.371 45.1084 10.0895 52.6604 8.77055C77.4969 4.46483 101.274 21.9557 105.85 47.8961C110.43 73.8365 94.0861 98.4682 69.2872 102.994C66.1496 103.56 62.9593 103.782 59.7689 103.654C64.1084 104.209 68.4814 104.095 72.7591 103.319Z" fill="#FCFCFC"/>
<path fill-rule="evenodd" clip-rule="evenodd" d="M81.4881 103.326C109.643 98.2012 128.367 71.234 123.375 42.9985C118.381 14.7628 91.5495 -4.11343 63.3531 0.768872C53.2765 2.51992 43.9105 7.39348 36.4814 14.439C43.3184 9.1455 51.4252 5.40835 60.0031 3.91302C88.2057 -0.9667 114.915 17.1472 119.75 44.4358C124.583 71.7242 105.724 97.9177 77.5586 103.031C73.995 103.669 70.3773 103.947 66.7635 103.857C71.6719 104.381 76.6299 104.202 81.4881 103.326Z" fill="#FCFCFC"/>
<path fill-rule="evenodd" clip-rule="evenodd" d="M77.584 103.226C103.771 98.4443 121.015 72.3172 116.157 44.7809C111.296 17.2455 86.1667 -1.3372 59.9378 3.21037C50.564 4.84146 41.9018 9.20355 35.0333 16.011C41.3625 10.9069 48.8607 7.64057 56.8404 6.24875C83.0758 1.70376 108.087 19.5419 112.791 46.154C117.495 72.7671 100.119 98.1383 73.9222 102.91C70.6074 103.506 67.2372 103.749 63.8695 103.636C68.4478 104.182 73.065 104.045 77.584 103.226Z" fill="#FCFCFC"/>
<path fill-rule="evenodd" clip-rule="evenodd" d="M99.7627 38.1888C83.2981 19.0733 53.2577 17.9182 32.5618 35.6054C11.8688 53.2936 8.3061 83.167 24.595 102.432C30.4212 109.314 38.3066 114.186 47.2629 116.436C39.9861 113.781 33.5713 109.32 28.6072 103.464C12.3199 84.1898 15.3165 54.7864 35.3109 37.6851C55.3105 20.5851 84.7829 22.2239 101.241 41.352C103.316 43.7757 105.126 46.4197 106.634 49.2401C104.912 45.2117 102.599 41.4906 99.7627 38.1888Z" fill="#FCFCFC"/>
<path fill-rule="evenodd" clip-rule="evenodd" d="M95.3444 30.6448C76.67 8.91787 43.9809 6.40739 22.2204 25.0292C0.460931 43.6509 -2.18234 76.3975 16.3061 98.2818C22.9191 106.101 31.8452 111.6 41.6704 114.447C33.6531 111.224 26.3408 106.237 20.708 99.583C2.21828 77.69 4.26847 45.4371 25.2936 27.4326C46.3188 9.42803 78.411 12.4487 97.0815 34.1882C99.4374 36.9431 101.509 39.9286 103.262 43.0966C101.226 38.5909 98.5598 34.3974 95.3444 30.6448Z" fill="#FCFCFC"/>
<path fill-rule="evenodd" clip-rule="evenodd" d="M97.2388 34.0685C79.8513 13.8682 48.6367 12.2107 27.4117 30.3613C6.18543 48.5119 2.93364 79.64 20.1374 99.9951C26.2906 107.267 34.0238 112.326 43.3599 114.81C35.7596 111.929 29.56 107.32 24.3208 101.132C7.11447 80.7697 9.78831 50.1218 30.2966 32.5732C50.8088 15.0246 81.4417 17.1788 98.8215 37.3929C101.012 39.9537 102.929 42.7402 104.537 45.708C102.689 41.4768 100.232 37.5577 97.2388 34.0685Z" fill="#FCFCFC"/>
<path fill-rule="evenodd" clip-rule="evenodd" d="M30.2677 45.4345C21.0803 68.9476 34.0791 96.1102 59.3481 106.198C84.6143 116.285 112.644 105.501 122.046 82.0747C125.4 73.6993 126.02 64.4368 123.828 55.4491C124.878 63.1382 123.937 70.9054 121.082 78.0363C111.673 101.468 84.324 112.533 59.8997 102.791C35.4757 93.048 23.1681 66.1614 32.3697 42.647C33.5398 39.6754 35.0281 36.8399 36.8144 34.1869C34.0627 37.5932 31.8593 41.3797 30.2677 45.4345Z" fill="#FCFCFC"/>
<path fill-rule="evenodd" clip-rule="evenodd" d="M25.6709 52.8706C15.2098 79.5604 28.2504 109.705 54.8405 120.301C81.4305 130.896 111.563 117.958 122.25 91.3573C126.065 81.8481 126.887 71.1534 124.816 61.1175C125.709 69.7274 124.588 78.7507 121.345 86.8477C110.651 113.453 81.2294 126.688 55.5269 116.455C29.8244 106.222 17.5142 76.3698 27.9888 49.6771C29.3188 46.304 30.9883 43.074 32.9642 40.0408C29.9386 43.9483 27.481 48.2688 25.6709 52.8706Z" fill="#FCFCFC"/>
<path fill-rule="evenodd" clip-rule="evenodd" d="M27.8104 49.5942C18.0933 74.4298 31.198 102.868 57.1232 113.212C83.0494 123.553 112.039 111.909 121.976 87.1628C125.521 78.3159 126.377 68.6151 124.212 59.1827C125.213 67.2611 124.041 75.3924 121.027 82.9251C111.082 107.675 82.7878 119.609 57.7276 109.621C32.6674 99.631 20.2745 71.4772 30.0025 46.64C31.2421 43.501 32.807 40.5029 34.6751 37.6925C31.804 41.3055 29.4909 45.3123 27.8104 49.5942Z" fill="#FCFCFC"/>
<path fill-rule="evenodd" clip-rule="evenodd" d="M39.2356 40.6013L39.404 40.4325H46.1856L46.3541 40.6013V40.9841C46.3541 42.7345 45.3019 44.1656 43.9063 44.9585C45.5838 45.7467 46.5954 47.4379 46.5954 49.1118V49.4946L46.427 49.6634H39.404L39.2356 49.4946V40.6013ZM39.5725 40.7701V49.3258H46.2585V49.1118C46.2585 47.4676 45.1962 45.7927 43.4526 45.1327L43.4392 44.8226C44.901 44.1187 46.0172 42.7096 46.0172 40.9841V40.7701H39.5725ZM40.4774 41.7351L40.6458 41.5663H44.7778L44.9452 41.7533C44.7434 43.6175 42.9366 44.6701 41.4555 44.6701H40.6458L40.4774 44.5013V41.7351ZM40.8143 41.9039V44.3325H41.4555C42.7677 44.3325 44.3085 43.433 44.5834 41.9039H40.8143ZM40.4774 45.5945L40.6458 45.4257H41.6618C43.3712 45.4257 44.9418 46.6732 45.1969 48.3403L45.0304 48.5347H40.6458L40.4774 48.3659V45.5945ZM40.8143 45.7633V48.1971H44.827C44.5113 46.8059 43.1519 45.7633 41.6618 45.7633H40.8143Z" fill="#FCFCFC"/>
<path d="M43.5107 44.9724C45.019 44.2481 46.1855 42.7867 46.1855 40.9831V40.6013H39.4026V49.4945H46.4256V49.1127C46.4256 47.3984 45.3234 45.6577 43.5107 44.9724ZM44.7777 41.7325C44.5878 43.4858 42.8758 44.5013 41.4567 44.5013H40.6448V41.7325H44.7777ZM40.6448 45.5945H41.6591C43.2945 45.5945 44.7902 46.7886 45.0316 48.3633H40.6448V45.5945Z" fill="#FCFCFC"/>
<path fill-rule="evenodd" clip-rule="evenodd" d="M50.4907 40.6618L50.6479 40.4324H52.041L52.1982 40.5405L55.6209 49.4338L55.4637 49.6633H54.0709L53.9139 49.5557L53.4934 48.4709L47.3992 49.8007L47.1956 49.6516C47.1706 49.3853 47.1447 49.0954 47.1447 48.8344C47.1447 45.9866 48.9133 43.6703 51.3975 43.0267L50.4907 40.6618ZM50.8931 40.7701L51.7809 43.0854L51.66 43.3107C49.2426 43.8464 47.4816 46.0606 47.4816 48.8344C47.4816 49.0201 47.4958 49.2243 47.5137 49.4302L53.5624 48.1103L53.7552 48.2141L54.1862 49.3257H55.2182L51.9254 40.7701H50.8931ZM48.8791 47.9468L52.9544 47.0586L51.9596 44.4672C50.2094 44.8357 49.0312 46.1957 48.8791 47.9468ZM48.5289 48.1528C48.6058 46.0945 49.9801 44.475 52.0366 44.1084L52.2233 44.214L53.3393 47.1211L53.2179 47.3467L48.733 48.3241L48.5289 48.1528Z" fill="#FCFCFC"/>
<path d="M55.465 49.4945L52.042 40.6013H50.6479L51.6236 43.142C49.1258 43.7012 47.3131 45.9876 47.3131 48.8344C47.3131 49.0876 47.3382 49.3675 47.3633 49.6345L53.6008 48.2752L54.0709 49.4945H55.465ZM48.6946 48.1604C48.7712 46.1791 50.0899 44.6283 52.0674 44.2733L53.1834 47.1817L48.6946 48.1604Z" fill="#FCFCFC"/>
<path fill-rule="evenodd" clip-rule="evenodd" d="M56.2117 40.6013L56.3802 40.4324H63.6043L63.7727 40.6013V41.8205L63.7296 41.9333L58.1994 48.1064H63.6661L63.8345 48.2752V49.4945L63.6661 49.6633H56.2495L56.0811 49.4945V48.2752L56.1242 48.1625L61.6541 41.9893H56.3802L56.2117 41.8205V40.6013ZM56.5486 40.7701V41.6517H62.0316L62.157 41.9333L56.418 48.3399V49.3257H63.4976V48.444H57.8218L57.6965 48.1625L63.4358 41.7559V40.7701H56.5486Z" fill="#FCFCFC"/>
<path d="M56.2509 49.4946H63.6671V48.2753H57.8232L63.6044 41.8206V40.6013H56.3777V41.8206H62.0317L56.2509 48.2753V49.4946Z" fill="#FCFCFC"/>
<path fill-rule="evenodd" clip-rule="evenodd" d="M67.6053 40.6617L67.7626 40.4324H69.154L69.3112 40.5405L72.7368 49.4337L72.5796 49.6633H71.1868L71.0298 49.5557L70.6093 48.4709L64.5151 49.8007L64.3115 49.6516C64.2865 49.3853 64.2606 49.0954 64.2606 48.8344C64.2606 45.9866 66.0292 43.6704 68.5106 43.0267L67.6053 40.6617ZM68.0076 40.7701L68.8939 43.0855L68.7731 43.3107C66.3586 43.8463 64.5975 46.0606 64.5975 48.8344C64.5975 49.0201 64.6117 49.2243 64.6296 49.4302L70.6783 48.1103L70.8711 48.2141L71.3021 49.3257H72.334L69.0385 40.7701H68.0076ZM65.9938 47.9467L70.0689 47.0586L69.0727 44.4672C67.3253 44.8357 66.147 46.1956 65.9938 47.9467ZM65.6435 48.1527C65.7218 46.0945 67.0959 44.475 69.1496 44.1084L69.3363 44.2139L70.4539 47.121L70.3325 47.3467L65.8476 48.3241L65.6435 48.1527Z" fill="#FCFCFC"/>
<path d="M72.5797 49.4946L69.1567 40.6013H67.7627L68.738 43.1421C66.2405 43.7013 64.4278 45.9876 64.4278 48.8345C64.4278 49.0876 64.4529 49.3675 64.478 49.6345L70.7155 48.2753L71.1856 49.4946H72.5797ZM65.8093 48.1605C65.8859 46.1792 67.2047 44.6284 69.1818 44.2734L70.2981 47.1818L65.8093 48.1605Z" fill="#FCFCFC"/>
<path fill-rule="evenodd" clip-rule="evenodd" d="M38.2852 56.482L38.4536 56.3132H46.0562L46.2246 56.482V57.7013L46.0562 57.8701H43.0555V65.3752L42.8871 65.5441H41.6214L41.453 65.3752V57.8701H38.4536L38.2852 57.7013V56.482ZM38.6221 56.6508V57.5325H41.6214L41.7899 57.7013V65.2064H42.7186V57.7013L42.8871 57.5325H45.8877V56.6508H38.6221Z" fill="#FCFCFC"/>
<path d="M46.0587 56.482H38.4523V57.7013H41.6214V65.374H42.8883V57.7013H46.0587V56.482Z" fill="#FCFCFC"/>
<path fill-rule="evenodd" clip-rule="evenodd" d="M47.2213 56.482L47.3898 56.3132H54.2319L54.4004 56.482V56.8651C54.4004 58.8752 53.4039 60.4123 51.8883 61.3082L55.0388 65.27L54.907 65.5441H53.3569L53.2243 65.4793L50.4436 61.9196C49.9194 62.0583 49.3735 62.1472 48.8004 62.1728V65.3752L48.6319 65.5441H47.3898L47.2213 65.3752V56.482ZM47.5582 56.6508V65.2064H48.4635V62.0095L48.6281 61.8408C49.2718 61.826 49.8799 61.7274 50.4622 61.5648L50.64 61.6233L53.439 65.2064H54.5574L51.5019 61.364L51.5532 61.1105C53.0649 60.2865 54.0635 58.8195 54.0635 56.8651V56.6508H47.5582ZM48.4635 57.5906L48.6319 57.4218H52.9145L53.0808 57.6171C52.7501 59.7041 51.0316 61.0245 48.6319 61.0245L48.4635 60.8557V57.5906ZM48.8004 57.7594V60.6846C50.8973 60.6272 52.349 59.4952 52.7122 57.7594H48.8004Z" fill="#FCFCFC"/>
<path d="M53.3608 65.374H54.907L51.6363 61.2588C53.196 60.4072 54.2358 58.8828 54.2358 56.8625V56.482H47.3898V65.374H48.6319V62.0083C49.2907 61.9957 49.9127 61.8935 50.5087 61.7287L53.3608 65.374ZM48.6319 60.8519V57.5868H52.917C52.6004 59.5819 50.965 60.8519 48.6319 60.8519Z" fill="#FCFCFC"/>
<path fill-rule="evenodd" clip-rule="evenodd" d="M58.3373 56.5426L58.4945 56.3132H59.8872L60.0444 56.4212L63.47 65.3145L63.3128 65.5441H61.9201L61.763 65.4364L61.3425 64.3516L55.2483 65.6814L55.0447 65.5323C55.0197 65.2663 54.9938 64.9765 54.9938 64.7151C54.9938 61.8674 56.7623 59.5511 59.2449 58.9074L58.3373 56.5426ZM58.7398 56.6508L59.6284 58.966L59.5075 59.1915C57.0918 59.7271 55.3307 61.9413 55.3307 64.7151C55.3307 64.901 55.3449 65.1052 55.3628 65.3109L61.4115 63.991L61.6043 64.0948L62.0353 65.2064H63.0672L59.7717 56.6508H58.7398ZM56.7271 63.8277L60.801 62.9393L59.8071 60.348C58.0585 60.7165 56.8803 62.0764 56.7271 63.8277ZM56.3767 64.0338C56.455 61.9752 57.8291 60.3557 59.8841 59.9891L60.0709 60.0947L61.1859 63.0019L61.0645 63.2274L56.5808 64.2051L56.3767 64.0338Z" fill="#FCFCFC"/>
<path d="M63.3127 65.374L59.8897 56.482H58.4944L59.4711 59.0228C56.9736 59.5819 55.1609 61.8683 55.1609 64.7138C55.1609 64.9683 55.186 65.2482 55.2111 65.5139L61.4485 64.1547L61.9174 65.374H63.3127ZM56.5424 64.0412C56.619 62.0586 57.9364 60.5091 59.9148 60.1527L61.0299 63.0624L56.5424 64.0412Z" fill="#FCFCFC"/>
<path fill-rule="evenodd" clip-rule="evenodd" d="M64.5019 56.482L64.6704 56.3132H65.9376L66.1061 56.482V65.3752L65.9376 65.5441H64.6704L64.5019 65.3752V56.482ZM64.8388 56.6508V65.2064H65.7692V56.6508H64.8388Z" fill="#FCFCFC"/>
<path d="M64.6692 56.482H65.9364V65.374H64.6692V56.482Z" fill="#FCFCFC"/>
<path fill-rule="evenodd" clip-rule="evenodd" d="M68.0505 56.482L68.219 56.3132H69.4862L69.6103 56.3678L74.5168 61.7268V56.482L74.6852 56.3132H75.9509L76.1193 56.482V65.3752L75.9509 65.5441H74.6852L74.5168 65.3752V63.9447L69.6547 58.6433V65.3752L69.4862 65.5441H68.219L68.0505 65.3752V56.482ZM68.3874 56.6508V65.2064H69.3178V58.2101L69.6102 58.0959L74.8092 63.7647L74.8537 63.8789V65.2064H75.7824V56.6508H74.8537V62.1605L74.5611 62.2746L69.4122 56.6508H68.3874Z" fill="#FCFCFC"/>
<path d="M74.6839 56.482V62.1605L69.4862 56.482H68.219V65.374H69.4862V58.2088L74.6839 63.8751V65.374H75.9522V56.482H74.6839Z" fill="#FCFCFC"/>
<path fill-rule="evenodd" clip-rule="evenodd" d="M78.0666 56.482L78.235 56.3132H84.1935L84.3619 56.482V57.6761L84.1935 57.8449H79.6707V60.1629H83.8099L83.9783 60.3317V61.5258L83.8099 61.6946H79.6707V64.0123H84.1935L84.3619 64.1811V65.3752L84.1935 65.5441H78.235L78.0666 65.3752V56.482ZM78.4035 56.6508V65.2064H84.025V64.3499H79.5023L79.3338 64.1811V61.5258L79.5023 61.357H83.6414V60.5005H79.5023L79.3338 60.3317V57.6761L79.5023 57.5073H84.025V56.6508H78.4035Z" fill="#FCFCFC"/>
<path d="M84.1921 57.6761V56.482H78.2336V65.374H84.1921V64.1798H79.5009V61.5258H83.8111V60.3317H79.5009V57.6761H84.1921Z" fill="#FCFCFC"/>
<path fill-rule="evenodd" clip-rule="evenodd" d="M85.9267 56.482L86.0952 56.3132H92.0533L92.2217 56.482V57.6761L92.0533 57.8449H87.5293V60.1629H91.6713L91.8398 60.3317V61.5258L91.6713 61.6946H87.5293V64.0123H92.0533L92.2217 64.1811V65.3752L92.0533 65.5441H86.0952L85.9267 65.3752V56.482ZM86.2636 56.6508V65.2064H91.8848V64.3499H87.3608L87.1923 64.1811V61.5258L87.3608 61.357H91.5029V60.5005H87.3608L87.1923 60.3317V57.6761L87.3608 57.5073H91.8848V56.6508H86.2636Z" fill="#FCFCFC"/>
<path d="M92.0524 57.6761V56.482H86.0939V65.374H92.0524V64.1798H87.3609V61.5258H91.6714V60.3317H87.3609V57.6761H92.0524Z" fill="#FCFCFC"/>
<path fill-rule="evenodd" clip-rule="evenodd" d="M39.1096 72.3614L39.2781 72.1926H40.5453L40.7138 72.3614V75.4604C40.7138 76.882 41.1424 77.9765 41.929 78.717C42.7172 79.4588 43.8876 79.8666 45.4126 79.8666H45.5711V72.3614L45.7395 72.1926H47.0065L47.1749 72.3614V81.2547L47.0065 81.4235H45.4126C43.4369 81.4235 41.8569 80.8888 40.7699 79.8635C39.6815 78.8368 39.1096 77.3393 39.1096 75.4604V72.3614ZM39.4465 72.5302V75.4604C39.4465 77.2696 39.9954 78.6693 41.0009 79.6177C42.0078 80.5675 43.4951 81.0859 45.4126 81.0859H46.838V72.5302H45.908V80.0354L45.7395 80.2042H45.4126C43.8302 80.2042 42.567 79.7806 41.6984 78.963C40.8282 78.144 40.3769 76.9511 40.3769 75.4604V72.5302H39.4465Z" fill="#FCFCFC"/>
<path d="M45.7418 72.3614V80.0354H45.4113C42.3053 80.0354 40.5441 78.3714 40.5441 75.4614V72.3614H39.2758V75.4614C39.2758 79.146 41.5194 81.2547 45.4113 81.2547H47.009V72.3614H45.7418Z" fill="#FCFCFC"/>
<path fill-rule="evenodd" clip-rule="evenodd" d="M49.1234 72.3614L49.2919 72.1926H50.5337L50.7022 72.3614V76.0826H51.4991C52.5205 76.0826 53.3493 75.7588 53.9237 75.1452C54.4993 74.5303 54.8389 73.6037 54.8389 72.3614L55.0074 72.1926H56.2759L56.4444 72.3614C56.4444 74.2228 55.7193 75.9751 54.198 76.7417C55.822 77.5184 56.6204 79.311 56.6204 81.2547L56.4519 81.4235H55.1834L55.015 81.2547C55.015 80.1543 54.7045 79.2271 54.1189 78.577C53.5355 77.9294 52.6628 77.5386 51.4991 77.5386H50.7022V81.2547L50.5337 81.4235H49.2919L49.1234 81.2547V72.3614ZM49.4603 72.5302V81.0859H50.3653V77.3698L50.5337 77.201H51.4991C52.7425 77.201 53.7119 77.6215 54.3689 78.3508C54.9918 79.0422 55.3191 79.9946 55.3495 81.0859H56.2814C56.2333 79.154 55.3567 77.4898 53.7105 76.9042L53.7087 76.5867C55.2523 76.0182 56.0595 74.3933 56.1054 72.5302H55.1738C55.1441 73.752 54.7907 74.7124 54.1694 75.3762C53.5186 76.0714 52.5933 76.4202 51.4991 76.4202H50.5337L50.3653 76.2514V72.5302H49.4603Z" fill="#FCFCFC"/>
<path d="M53.7656 76.7451C55.4525 76.1227 56.276 74.3317 56.276 72.3613H55.0087C55.0087 74.9021 53.6134 76.2488 51.4966 76.2488H50.5338V72.3613H49.2906V81.2546H50.5338V77.3675H51.4966C53.9053 77.3675 55.186 78.9937 55.186 81.2546H56.4543C56.4543 79.2091 55.5532 77.38 53.7656 76.7451Z" fill="#FCFCFC"/>
<path fill-rule="evenodd" clip-rule="evenodd" d="M57.9979 72.3613L58.1664 72.1925H65.0082L65.1766 72.3613V72.7444C65.1766 74.7546 64.1817 76.2917 62.6635 77.1877L65.8138 81.1494L65.6821 81.4234H64.1348L64.0022 81.3587L61.2188 77.7991C60.6962 77.9378 60.1495 78.0266 59.5754 78.0521V81.2546L59.4069 81.4234H58.1664L57.9979 81.2546V72.3613ZM58.3348 72.5301V81.0858H59.2385V77.8889L59.4031 77.7202C60.0482 77.7053 60.6576 77.6067 61.237 77.4442L61.415 77.5026L64.2168 81.0858H65.3324L62.277 77.2434L62.3283 76.9898C63.8428 76.1658 64.8398 74.699 64.8398 72.7444V72.5301H58.3348ZM59.2385 73.47L59.4069 73.3012H63.6924L63.8587 73.4967C63.5249 75.5838 61.8067 76.9039 59.4069 76.9039L59.2385 76.7351V73.47ZM59.5754 73.6388V76.564C61.6722 76.5066 63.1241 75.3749 63.4898 73.6388H59.5754Z" fill="#FCFCFC"/>
<path d="M64.1362 81.2547H65.6834L62.4126 77.1382C63.9714 76.2879 65.0109 74.7625 65.0109 72.7432V72.3614H58.1652V81.2547H59.407V77.8877C60.067 77.8751 60.6881 77.7742 61.2838 77.6094L64.1362 81.2547ZM59.407 76.7326V73.4675H63.6924C63.3755 75.4614 61.7401 76.7326 59.407 76.7326Z" fill="#FCFCFC"/>
<path fill-rule="evenodd" clip-rule="evenodd" d="M69.1139 72.4219L69.2712 72.1926H70.6639L70.8211 72.3006L74.2438 81.1939L74.0866 81.4235H72.6938L72.5368 81.3157L72.1174 80.231L66.0234 81.5608L65.8199 81.4125C65.7935 81.1458 65.7676 80.8561 65.7676 80.5946C65.7676 77.7467 67.5363 75.4307 70.0204 74.7868L69.1139 72.4219ZM69.5163 72.5302L70.4038 74.8455L70.2829 75.0709C67.8655 75.6068 66.1045 77.8208 66.1045 80.5946C66.1045 80.7804 66.1187 80.9849 66.1372 81.1905L72.1866 79.8704L72.3795 79.9744L72.8092 81.0859H73.8411L70.5484 72.5302H69.5163ZM67.5021 79.7072L71.5776 78.8188L70.5825 76.2274C68.8325 76.5961 67.6552 77.9557 67.5021 79.7072ZM67.1518 79.9132C67.23 77.8547 68.6029 76.2354 70.6595 75.8685L70.8462 75.9741L71.9626 78.8812L71.8412 79.1068L67.3559 80.0845L67.1518 79.9132Z" fill="#FCFCFC"/>
<path d="M74.0879 81.2547L70.6652 72.3614H69.2712L70.2466 74.9022C67.7487 75.4614 65.936 77.7477 65.936 80.5946C65.936 80.848 65.9611 81.1276 65.9875 81.3946L72.225 80.0354L72.6938 81.2547H74.0879ZM67.3188 79.9209C67.3944 77.9393 68.7128 76.3885 70.6903 76.0334L71.8063 78.9419L67.3188 79.9209Z" fill="#FCFCFC"/>
<path fill-rule="evenodd" clip-rule="evenodd" d="M75.2771 72.3614L75.4456 72.1926H76.7128L76.8813 72.3614V81.2547L76.7128 81.4235H75.4456L75.2771 81.2547V72.3614ZM75.614 72.5302V81.0859H76.5444V72.5302H75.614Z" fill="#FCFCFC"/>
<path d="M75.4444 72.3613H76.7126V81.2546H75.4444V72.3613Z" fill="#FCFCFC"/>
<path fill-rule="evenodd" clip-rule="evenodd" d="M78.8255 72.3613L78.9939 72.1925H80.2625L80.3866 72.2472L85.293 77.6065V72.3613L85.4615 72.1925H86.7287L86.8972 72.3613V81.2546L86.7287 81.4234H85.4615L85.293 81.2546V79.8241L80.4309 74.5229V81.2546L80.2625 81.4234H78.9939L78.8255 81.2546V72.3613ZM79.1624 72.5301V81.0858H80.094V74.0898L80.3865 73.9756L85.5855 79.6441L85.6299 79.7583V81.0858H86.5603V72.5301H85.6299V78.0402L85.3374 78.1543L80.1884 72.5301H79.1624Z" fill="#FCFCFC"/>
<path d="M85.4602 72.3613V78.0402L80.2625 72.3613H78.9939V81.2546H80.2625V74.0898L85.4602 79.7557V81.2546H86.7274V72.3613H85.4602Z" fill="#FCFCFC"/>
<path fill-rule="evenodd" clip-rule="evenodd" d="M88.8415 72.3613L89.01 72.1925H94.9684L95.1369 72.3613V73.5555L94.9684 73.7243H90.4457V76.0423H94.5864L94.7549 76.2111V77.4052L94.5864 77.574H90.4457V79.8917H94.9684L95.1369 80.0605V81.2546L94.9684 81.4234H89.01L88.8415 81.2546V72.3613ZM89.1784 72.5301V81.0858H94.8V80.2293H90.2772L90.1088 80.0605V77.4052L90.2772 77.2364H94.418V76.3799H90.2772L90.1088 76.2111V73.5555L90.2772 73.3867H94.8V72.5301H89.1784Z" fill="#FCFCFC"/>
<path d="M94.9673 73.5555V72.3614H89.0088V81.2547H94.9673V80.0605H90.2773V77.4052H94.5875V76.2111H90.2773V73.5555H94.9673Z" fill="#FCFCFC"/>
</g>
<defs>
<filter id="filter0_d_3274_4392" x="0" y="0" width="129.923" height="132" filterUnits="userSpaceOnUse" color-interpolation-filters="sRGB">
<feFlood flood-opacity="0" result="BackgroundImageFix"/>
<feColorMatrix in="SourceAlpha" type="matrix" values="0 0 0 0 0 0 0 0 0 0 0 0 0 0 0 0 0 0 127 0" result="hardAlpha"/>
<feOffset dy="4"/>
<feGaussianBlur stdDeviation="2"/>
<feComposite in2="hardAlpha" operator="out"/>
<feColorMatrix type="matrix" values="0 0 0 0 0 0 0 0 0 0 0 0 0 0 0 0 0 0 0.25 0"/>
<feBlend mode="normal" in2="BackgroundImageFix" result="effect1_dropShadow_3274_4392"/>
<feBlend mode="normal" in="SourceGraphic" in2="effect1_dropShadow_3274_4392" result="shape"/>
</filter>
</defs>
</svg>
