<svg viewBox="0 0 78 78" fill="none" xmlns="http://www.w3.org/2000/svg">
<path fill-rule="evenodd" clip-rule="evenodd" d="M43.9607 64.9911C59.8094 62.1371 70.1758 46.181 67.1533 29.2961C64.1291 12.413 48.8528 0.9553 32.9793 3.66515C27.3053 4.63741 22.0719 7.36958 17.9322 11.5201C21.7495 8.4108 26.2824 6.34661 31.1107 5.51696C46.9898 2.80852 62.1914 13.8108 65.1175 30.1282C68.0454 46.4455 57.596 61.9397 41.741 64.7867C39.735 65.1425 37.6953 65.282 35.6556 65.2019C38.43 65.5506 41.2258 65.4792 43.9607 64.9911Z" fill="#fcfcfc"/>
<path fill-rule="evenodd" clip-rule="evenodd" d="M49.5416 64.9952C67.5425 61.7717 79.5131 44.8085 76.3217 27.0475C73.1288 9.28626 55.9743 -2.58748 37.947 0.483646C31.5047 1.58511 25.5165 4.65074 20.7668 9.08257C25.138 5.75281 30.321 3.40203 35.8053 2.46142C53.8364 -0.608085 70.9129 10.7861 74.004 27.9516C77.094 45.1168 65.0366 61.5934 47.0293 64.8098C44.7509 65.2114 42.438 65.3858 40.1275 65.3295C43.2657 65.6591 46.4355 65.5465 49.5416 64.9952Z" fill="#fcfcfc"/>
<path fill-rule="evenodd" clip-rule="evenodd" d="M47.0455 64.9325C63.7883 61.9247 74.8132 45.4899 71.7071 28.1686C68.5992 10.848 52.5328 -0.841145 35.7635 2.01943C29.7704 3.04543 24.2323 5.78933 19.841 10.0715C23.8875 6.86077 28.6815 4.80616 33.7832 3.93067C50.5567 1.07172 66.5475 12.2925 69.5548 29.0324C72.5621 45.7728 61.4529 61.7322 44.7044 64.7337C42.585 65.1084 40.4303 65.2613 38.2772 65.1901C41.2043 65.534 44.1563 65.4475 47.0455 64.9325Z" fill="#fcfcfc"/>
<path fill-rule="evenodd" clip-rule="evenodd" d="M61.2253 24.022C50.6988 11.9977 31.4927 11.2711 18.2608 22.397C5.03084 33.5234 2.75308 52.3147 13.1673 64.4333C16.8922 68.7621 21.9337 71.8269 27.6599 73.2422C23.0075 71.5719 18.9062 68.7661 15.7325 65.0822C5.31929 52.9581 7.23515 34.4624 20.0185 23.7051C32.8051 12.9487 51.6481 13.9796 62.1705 26.0117C63.4974 27.5363 64.654 29.1995 65.6183 30.9736C64.5172 28.4396 63.0385 26.099 61.2253 24.022Z" fill="#fcfcfc"/>
<path fill-rule="evenodd" clip-rule="evenodd" d="M58.4005 19.2766C46.4612 5.60963 25.5616 4.03045 11.6491 15.7441C-2.26268 27.4578 -3.95264 48.0565 7.86781 61.8224C12.0958 66.7407 17.8027 70.2003 24.0844 71.991C18.9585 69.9633 14.2834 66.8263 10.6821 62.6409C-1.13913 48.8695 0.171643 28.5814 13.614 17.256C27.0563 5.93054 47.5742 7.83062 59.5111 21.5055C61.0173 23.2384 62.3417 25.1164 63.4628 27.1091C62.1609 24.2749 60.4563 21.6371 58.4005 19.2766Z" fill="#fcfcfc"/>
<path fill-rule="evenodd" clip-rule="evenodd" d="M59.6117 21.4302C48.4951 8.72356 28.5382 7.68092 14.9681 19.0982C1.39724 30.5156 -0.681769 50.0961 10.3174 62.9001C14.2513 67.4744 19.1955 70.6567 25.1645 72.2192C20.3053 70.4072 16.3417 67.5076 12.992 63.6156C1.99122 50.8067 3.70073 31.5282 16.8126 20.4896C29.927 9.45098 49.5119 10.806 60.6236 23.5214C62.0242 25.1322 63.2498 26.885 64.2777 28.7518C63.0964 26.0902 61.5251 23.625 59.6117 21.4302Z" fill="#fcfcfc"/>
<path fill-rule="evenodd" clip-rule="evenodd" d="M16.7941 28.5798C10.9202 43.3703 19.2309 60.4564 35.3865 66.8017C51.5403 73.147 69.4608 66.3636 75.4723 51.6276C77.6163 46.3593 78.0126 40.5328 76.6111 34.8792C77.2828 39.716 76.681 44.6018 74.8557 49.0874C68.8402 63.8263 51.3547 70.7867 35.7392 64.659C20.1238 58.5302 12.255 41.6177 18.138 26.8264C18.8861 24.9571 19.8376 23.1735 20.9797 21.5046C19.2204 23.6473 17.8117 26.0292 16.7941 28.5798Z" fill="#fcfcfc"/>
<path fill-rule="evenodd" clip-rule="evenodd" d="M13.8552 33.2573C7.16692 50.0461 15.5044 69.0077 32.5046 75.6731C49.5048 82.3379 68.7695 74.1994 75.6024 57.4667C78.0417 51.4851 78.5673 44.7578 77.2428 38.4449C77.8141 43.8608 77.0973 49.5367 75.0239 54.63C68.1869 71.3659 49.3762 79.6905 32.9434 73.2542C16.5107 66.8168 8.64023 48.0391 15.3371 31.2485C16.1874 29.1267 17.2548 27.095 18.5181 25.187C16.5837 27.6449 15.0124 30.3627 13.8552 33.2573Z" fill="#fcfcfc"/>
<path fill-rule="evenodd" clip-rule="evenodd" d="M15.2231 31.1963C9.01049 46.8187 17.3889 64.7075 33.964 71.2137C50.5398 77.719 69.0742 70.3944 75.4272 54.8282C77.6935 49.2632 78.2408 43.1611 76.857 37.2278C77.4967 42.3094 76.7477 47.4242 74.8205 52.1626C68.4625 67.7312 50.3725 75.2382 34.3504 68.9554C18.3283 62.6711 10.405 44.9614 16.6246 29.338C17.4171 27.3635 18.4176 25.4776 19.6119 23.7098C17.7763 25.9825 16.2974 28.5029 15.2231 31.1963Z" fill="#fcfcfc"/>
<path fill-rule="evenodd" clip-rule="evenodd" d="M22.5277 25.5395L22.6353 25.4333H26.9711L27.0788 25.5395V25.7803C27.0788 26.8814 26.4061 27.7816 25.5139 28.2804C26.5863 28.7762 27.2331 29.84 27.2331 30.8929V31.1337L27.1254 31.2399H22.6353L22.5277 31.1337V25.5395ZM22.743 25.6457V31.0275H27.0177V30.8929C27.0177 29.8587 26.3385 28.8051 25.2238 28.3899L25.2152 28.1949C26.1498 27.7521 26.8634 26.8657 26.8634 25.7803V25.6457H22.743ZM23.3216 26.2527L23.4293 26.1466H26.071L26.1781 26.2642C26.049 27.4368 24.8939 28.099 23.947 28.099H23.4293L23.3216 27.9928V26.2527ZM23.537 26.3589V27.8866H23.947C24.7859 27.8866 25.771 27.3207 25.9468 26.3589H23.537ZM23.3216 28.6804L23.4293 28.5743H24.0788C25.1717 28.5743 26.1759 29.3589 26.339 30.4076L26.2325 30.5299H23.4293L23.3216 30.4237V28.6804ZM23.537 28.7866V30.3175H26.1025C25.9007 29.4424 25.0315 28.7866 24.0788 28.7866H23.537Z" fill="#fcfcfc"/>
<path d="M25.261 28.2891C26.2253 27.8335 26.9711 26.9142 26.9711 25.7797V25.5395H22.6345V31.1337H27.1246V30.8935C27.1246 29.8151 26.4199 28.7202 25.261 28.2891ZM26.071 26.2511C25.9496 27.354 24.855 27.9927 23.9477 27.9927H23.4286V26.2511H26.071ZM23.4286 28.6804H24.0771C25.1227 28.6804 26.079 29.4316 26.2333 30.4221H23.4286V28.6804Z" fill="#fcfcfc"/>
<path fill-rule="evenodd" clip-rule="evenodd" d="M29.7236 25.5776L29.8241 25.4333H30.7147L30.8152 25.5013L33.0035 31.0954L32.903 31.2398H32.0126L31.9122 31.1721L31.6433 30.4897L27.747 31.3263L27.6169 31.2324C27.6009 31.0649 27.5843 30.8826 27.5843 30.7184C27.5843 28.927 28.7151 27.47 30.3033 27.0652L29.7236 25.5776ZM29.9809 25.6457L30.5484 27.1021L30.4712 27.2439C28.9256 27.5808 27.7997 28.9736 27.7997 30.7184C27.7997 30.8352 27.8088 30.9637 27.8203 31.0932L31.6874 30.2629L31.8107 30.3282L32.0863 31.0275H32.7461L30.6409 25.6457H29.9809ZM28.6932 30.1601L31.2987 29.6014L30.6627 27.9713C29.5437 28.2031 28.7904 29.0586 28.6932 30.1601ZM28.4693 30.2897C28.5185 28.9949 29.3971 27.9762 30.7119 27.7456L30.8313 27.812L31.5448 29.6407L31.4672 29.7826L28.5998 30.3974L28.4693 30.2897Z" fill="#fcfcfc"/>
<path d="M32.9038 31.1337L30.7154 25.5395H29.8241L30.4479 27.1377C28.8509 27.4895 27.692 28.9277 27.692 30.7184C27.692 30.8777 27.708 31.0537 27.7241 31.2217L31.712 30.3667L32.0126 31.1337H32.9038ZM28.5752 30.2945C28.6242 29.0482 29.4673 28.0727 30.7316 27.8493L31.4451 29.6788L28.5752 30.2945Z" fill="#fcfcfc"/>
<path fill-rule="evenodd" clip-rule="evenodd" d="M33.3813 25.5395L33.489 25.4333H38.1076L38.2153 25.5395V26.3065L38.1878 26.3774L34.6521 30.2605H38.1471L38.2548 30.3667V31.1337L38.1471 31.2398H33.4054L33.2977 31.1337V30.3667L33.3253 30.2958L36.8608 26.4127H33.489L33.3813 26.3065V25.5395ZM33.5967 25.6457V26.2003H37.1022L37.1823 26.3774L33.5131 30.4074V31.0275H38.0395V30.4729H34.4107L34.3305 30.2957L38 26.2658V25.6457H33.5967Z" fill="#fcfcfc"/>
<path d="M33.4063 31.1337H38.1478V30.3667H34.4116L38.1077 26.3065V25.5395H33.4874V26.3065H37.1023L33.4063 30.3667V31.1337Z" fill="#fcfcfc"/>
<path fill-rule="evenodd" clip-rule="evenodd" d="M40.6657 25.5775L40.7662 25.4333H41.6559L41.7563 25.5013L43.9464 31.0954L43.846 31.2398H42.9555L42.8551 31.1721L42.5862 30.4897L38.69 31.3263L38.5598 31.2324C38.5438 31.0649 38.5273 30.8826 38.5273 30.7184C38.5273 28.9271 39.658 27.4701 41.2445 27.0652L40.6657 25.5775ZM40.9229 25.6457L41.4896 27.1021L41.4123 27.2438C39.8686 27.5808 38.7427 28.9736 38.7427 30.7184C38.7427 30.8352 38.7517 30.9637 38.7632 31.0932L42.6304 30.2629L42.7537 30.3282L43.0292 31.0275H43.689L41.582 25.6457H40.9229ZM39.6354 30.16L42.2408 29.6014L41.6038 27.9713C40.4867 28.2031 39.7334 29.0585 39.6354 30.16ZM39.4114 30.2896C39.4615 28.995 40.34 27.9762 41.653 27.7456L41.7724 27.812L42.4869 29.6407L42.4093 29.7826L39.5419 30.3974L39.4114 30.2896Z" fill="#fcfcfc"/>
<path d="M43.846 31.1337L41.6576 25.5395H40.7663L41.3899 27.1378C39.7931 27.4895 38.6342 28.9277 38.6342 30.7185C38.6342 30.8777 38.6502 31.0538 38.6663 31.2217L42.6542 30.3667L42.9548 31.1337H43.846ZM39.5174 30.2945C39.5664 29.0482 40.4095 28.0727 41.6736 27.8494L42.3873 29.6789L39.5174 30.2945Z" fill="#fcfcfc"/>
<path fill-rule="evenodd" clip-rule="evenodd" d="M21.92 35.529L22.0277 35.4228H26.8884L26.9961 35.529V36.2959L26.8884 36.4021H24.9699V41.1231L24.8622 41.2293H24.0531L23.9454 41.1231V36.4021H22.0277L21.92 36.2959V35.529ZM22.1354 35.6352V36.1898H24.0531L24.1608 36.2959V41.017H24.7545V36.2959L24.8622 36.1898H26.7807V35.6352H22.1354Z" fill="#fcfcfc"/>
<path d="M26.89 35.529H22.0269V36.2959H24.053V41.1223H24.863V36.2959H26.89V35.529Z" fill="#fcfcfc"/>
<path fill-rule="evenodd" clip-rule="evenodd" d="M27.6333 35.529L27.741 35.4228H32.1155L32.2232 35.529V35.77C32.2232 37.0344 31.5861 38.0013 30.6171 38.5648L32.6313 41.057L32.5471 41.2293H31.5561L31.4713 41.1886L29.6935 38.9494C29.3583 39.0367 29.0093 39.0926 28.6429 39.1087V41.1231L28.5352 41.2293H27.741L27.6333 41.1231V35.529ZM27.8487 35.6352V41.017H28.4275V39.006L28.5327 38.8998C28.9443 38.8905 29.3331 38.8285 29.7053 38.7262L29.819 38.7631L31.6085 41.017H32.3236L30.3701 38.5999L30.4029 38.4405C31.3694 37.9221 32.0078 36.9994 32.0078 35.77V35.6352H27.8487ZM28.4275 36.2264L28.5352 36.1202H31.2732L31.3795 36.243C31.1681 37.5558 30.0694 38.3864 28.5352 38.3864L28.4275 38.2802V36.2264ZM28.6429 36.3326V38.1726C29.9835 38.1365 30.9116 37.4244 31.1439 36.3326H28.6429Z" fill="#fcfcfc"/>
<path d="M31.5585 41.1223H32.5471L30.456 38.5338C31.4532 37.9981 32.1179 37.0392 32.1179 35.7683V35.529H27.741V41.1223H28.5352V39.0052C28.9563 38.9973 29.354 38.933 29.7351 38.8293L31.5585 41.1223ZM28.5352 38.2778V36.2239H31.2748C31.0724 37.479 30.0268 38.2778 28.5352 38.2778Z" fill="#fcfcfc"/>
<path fill-rule="evenodd" clip-rule="evenodd" d="M34.7402 35.5671L34.8407 35.4228H35.7312L35.8317 35.4907L38.0218 41.0849L37.9213 41.2293H37.0309L36.9305 41.1616L36.6616 40.4792L32.7653 41.3157L32.6352 41.2219C32.6192 41.0546 32.6026 40.8723 32.6026 40.7079C32.6026 38.9166 33.7333 37.4596 35.3205 37.0547L34.7402 35.5671ZM34.9976 35.6352L35.5657 37.0915L35.4884 37.2333C33.9439 37.5702 32.818 38.9631 32.818 40.7079C32.818 40.8248 32.8271 40.9533 32.8385 41.0827L36.7057 40.2524L36.829 40.3177L37.1046 41.017H37.7643L35.6573 35.6352H34.9976ZM33.7107 40.1497L36.3154 39.5909L35.6799 37.9608C34.562 38.1926 33.8087 39.048 33.7107 40.1497ZM33.4867 40.2793C33.5368 38.9844 34.4153 37.9657 35.7292 37.7351L35.8486 37.8015L36.5615 39.6302L36.4839 39.7721L33.6173 40.3871L33.4867 40.2793Z" fill="#fcfcfc"/>
<path d="M37.9212 41.1223L35.7328 35.529H34.8407L35.4651 37.1272C33.8684 37.479 32.7094 38.9172 32.7094 40.7071C32.7094 40.8671 32.7255 41.0432 32.7415 41.2104L36.7294 40.3554L37.0292 41.1223H37.9212ZM33.5927 40.284C33.6416 39.0368 34.4839 38.0621 35.7488 37.838L36.4617 39.6683L33.5927 40.284Z" fill="#fcfcfc"/>
<path fill-rule="evenodd" clip-rule="evenodd" d="M38.6816 35.529L38.7893 35.4228H39.5995L39.7072 35.529V41.1231L39.5995 41.2293H38.7893L38.6816 41.1231V35.529ZM38.897 35.6352V41.017H39.4918V35.6352H38.897Z" fill="#fcfcfc"/>
<path d="M38.7885 35.529H39.5987V41.1223H38.7885V35.529Z" fill="#fcfcfc"/>
<path fill-rule="evenodd" clip-rule="evenodd" d="M40.9503 35.529L41.058 35.4228H41.8682L41.9476 35.4572L45.0845 38.8281V35.529L45.1922 35.4228H46.0014L46.1091 35.529V41.1231L46.0014 41.2293H45.1922L45.0845 41.1231V40.2233L41.9759 36.8885V41.1231L41.8682 41.2293H41.058L40.9503 41.1231V35.529ZM41.1657 35.6352V41.017H41.7605V36.616L41.9475 36.5442L45.2715 40.1101L45.2999 40.1819V41.017H45.8937V35.6352H45.2999V39.1009L45.1128 39.1727L41.8209 35.6352H41.1657Z" fill="#fcfcfc"/>
<path d="M45.1914 35.529V39.1009L41.8682 35.529H41.058V41.1223H41.8682V36.6152L45.1914 40.1795V41.1223H46.0022V35.529H45.1914Z" fill="#fcfcfc"/>
<path fill-rule="evenodd" clip-rule="evenodd" d="M47.354 35.529L47.4617 35.4228H51.2712L51.3789 35.529V36.2801L51.2712 36.3863H48.3796V37.8444H51.026L51.1337 37.9506V38.7017L51.026 38.8079H48.3796V40.2658H51.2712L51.3789 40.372V41.1231L51.2712 41.2293H47.4617L47.354 41.1231V35.529ZM47.5694 35.6352V41.017H51.1635V40.4782H48.2719L48.1642 40.372V38.7017L48.2719 38.5955H50.9183V38.0568H48.2719L48.1642 37.9506V36.2801L48.2719 36.1739H51.1635V35.6352H47.5694Z" fill="#fcfcfc"/>
<path d="M51.2704 36.2801V35.529H47.4608V41.1223H51.2704V40.3712H48.2711V38.7017H51.0268V37.9506H48.2711V36.2801H51.2704Z" fill="#fcfcfc"/>
<path fill-rule="evenodd" clip-rule="evenodd" d="M52.3794 35.529L52.4871 35.4228H56.2964L56.4041 35.529V36.2801L56.2964 36.3863H53.4039V37.8444H56.0521L56.1598 37.9506V38.7017L56.0521 38.8079H53.4039V40.2658H56.2964L56.4041 40.372V41.1231L56.2964 41.2293H52.4871L52.3794 41.1231V35.529ZM52.5948 35.6352V41.017H56.1887V40.4782H53.2962L53.1885 40.372V38.7017L53.2962 38.5955H55.9445V38.0568H53.2962L53.1885 37.9506V36.2801L53.2962 36.1739H56.1887V35.6352H52.5948Z" fill="#fcfcfc"/>
<path d="M56.2958 36.2801V35.529H52.4863V41.1223H56.2958V40.3712H53.2963V38.7017H56.0522V37.9506H53.2963V36.2801H56.2958Z" fill="#fcfcfc"/>
<path fill-rule="evenodd" clip-rule="evenodd" d="M22.4471 45.5176L22.5548 45.4115H23.3651L23.4728 45.5176V47.467C23.4728 48.3612 23.7468 49.0498 24.2497 49.5155C24.7536 49.9822 25.5019 50.2387 26.4769 50.2387H26.5782V45.5176L26.6859 45.4115H27.4959L27.6036 45.5176V51.1118L27.4959 51.218H26.4769C25.2137 51.218 24.2036 50.8817 23.5087 50.2367C22.8128 49.5909 22.4471 48.6489 22.4471 47.467V45.5176ZM22.6625 45.6238V47.467C22.6625 48.6051 23.0134 49.4855 23.6563 50.0821C24.3001 50.6795 25.251 51.0056 26.4769 51.0056H27.3882V45.6238H26.7936V50.3448L26.6859 50.451H26.4769C25.4652 50.451 24.6576 50.1846 24.1023 49.6703C23.5459 49.1551 23.2574 48.4047 23.2574 47.467V45.6238H22.6625Z" fill="#fcfcfc"/>
<path d="M26.6874 45.5176V50.3448H26.4761C24.4903 50.3448 23.3642 49.2981 23.3642 47.4676V45.5176H22.5534V47.4676C22.5534 49.7854 23.9878 51.1118 26.4761 51.1118H27.4976V45.5176H26.6874Z" fill="#fcfcfc"/>
<path fill-rule="evenodd" clip-rule="evenodd" d="M28.8494 45.5176L28.9571 45.4115H29.7511L29.8588 45.5176V47.8584H30.3683C31.0213 47.8584 31.5512 47.6547 31.9184 47.2687C32.2864 46.882 32.5036 46.2991 32.5036 45.5176L32.6113 45.4115H33.4223L33.53 45.5176C33.53 46.6885 33.0664 47.7908 32.0938 48.273C33.1321 48.7615 33.6425 49.8892 33.6425 51.1118L33.5348 51.218H32.7238L32.6161 51.1118C32.6161 50.4196 32.4176 49.8364 32.0432 49.4275C31.6702 49.0201 31.1123 48.7743 30.3683 48.7743H29.8588V51.1118L29.7511 51.218H28.9571L28.8494 51.1118V45.5176ZM29.0648 45.6238V51.0056H29.6434V48.6681L29.7511 48.5619H30.3683C31.1633 48.5619 31.783 48.8264 32.2031 49.2852C32.6013 49.7201 32.8106 50.3192 32.83 51.0056H33.4258C33.395 49.7904 32.8346 48.7436 31.7821 48.3752L31.781 48.1755C32.7679 47.8179 33.284 46.7958 33.3133 45.6238H32.7177C32.6987 46.3924 32.4728 46.9965 32.0755 47.414C31.6594 47.8513 31.0678 48.0708 30.3683 48.0708H29.7511L29.6434 47.9646V45.6238H29.0648Z" fill="#fcfcfc"/>
<path d="M31.8174 48.2751C32.8959 47.8836 33.4223 46.757 33.4223 45.5176H32.6121C32.6121 47.1159 31.72 47.963 30.3667 47.963H29.7511V45.5176H28.9563V51.1118H29.7511V48.6666H30.3667C31.9066 48.6666 32.7255 49.6896 32.7255 51.1118H33.5363C33.5363 49.8251 32.9602 48.6745 31.8174 48.2751Z" fill="#fcfcfc"/>
<path fill-rule="evenodd" clip-rule="evenodd" d="M34.5233 45.5176L34.631 45.4114H39.0052L39.1129 45.5176V45.7586C39.1129 47.023 38.4768 47.99 37.5061 48.5535L39.5203 51.0456L39.4361 51.218H38.4469L38.3621 51.1773L36.5825 48.9381C36.2484 49.0254 35.8989 49.0813 35.5318 49.0973V51.1118L35.4241 51.218H34.631L34.5233 51.1118V45.5176ZM34.7387 45.6238V51.0056H35.3164V48.9946L35.4216 48.8885C35.8341 48.8792 36.2237 48.8171 36.5941 48.7149L36.7079 48.7517L38.4993 51.0056H39.2125L37.259 48.5886L37.2919 48.4291C38.2601 47.9107 38.8975 46.9881 38.8975 45.7586V45.6238H34.7387ZM35.3164 46.215L35.4241 46.1088H38.164L38.2703 46.2318C38.0569 47.5447 36.9584 48.375 35.4241 48.375L35.3164 48.2688V46.215ZM35.5318 46.3212V48.1612C36.8724 48.1251 37.8006 47.4133 38.0345 46.3212H35.5318Z" fill="#fcfcfc"/>
<path d="M38.4477 51.1118H39.4369L37.3458 48.5224C38.3424 47.9875 39.0069 47.028 39.0069 45.7578V45.5176H34.6302V51.1118H35.4242V48.9939C35.8461 48.9859 36.2432 48.9225 36.6241 48.8188L38.4477 51.1118ZM35.4242 48.2673V46.2134H38.164C37.9614 47.4676 36.9158 48.2673 35.4242 48.2673Z" fill="#fcfcfc"/>
<path fill-rule="evenodd" clip-rule="evenodd" d="M41.6302 45.5557L41.7307 45.4115H42.6212L42.7217 45.4794L44.91 51.0736L44.8095 51.218H43.919L43.8186 51.1502L43.5505 50.4679L39.6543 51.3044L39.5242 51.2111C39.5073 51.0433 39.4908 50.8611 39.4908 50.6966C39.4908 48.9052 40.6215 47.4484 42.2098 47.0433L41.6302 45.5557ZM41.8875 45.6238L42.4549 47.0802L42.3776 47.222C40.8321 47.5591 39.7061 48.9518 39.7061 50.6966C39.7061 50.8135 39.7152 50.9421 39.7271 51.0714L43.5947 50.2411L43.718 50.3065L43.9928 51.0056H44.6525L42.5473 45.6238H41.8875ZM40.5997 50.1384L43.2053 49.5795L42.5691 47.9495C41.4503 48.1814 40.6976 49.0367 40.5997 50.1384ZM40.3757 50.268C40.4258 48.9731 41.3035 47.9545 42.6184 47.7238L42.7378 47.7902L43.4515 49.6188L43.3739 49.7607L40.5062 50.3758L40.3757 50.268Z" fill="#fcfcfc"/>
<path d="M44.8103 51.1118L42.622 45.5176H41.7307L42.3544 47.1159C40.7574 47.4676 39.5984 48.9058 39.5984 50.6966C39.5984 50.856 39.6145 51.0319 39.6314 51.1998L43.6193 50.3448L43.919 51.1118H44.8103ZM40.4825 50.2728C40.5309 49.0263 41.3738 48.0508 42.6381 47.8275L43.3516 49.657L40.4825 50.2728Z" fill="#fcfcfc"/>
<path fill-rule="evenodd" clip-rule="evenodd" d="M45.5706 45.5176L45.6783 45.4115H46.4885L46.5962 45.5176V51.1118L46.4885 51.218H45.6783L45.5706 51.1118V45.5176ZM45.786 45.6238V51.0056H46.3808V45.6238H45.786Z" fill="#fcfcfc"/>
<path d="M45.6776 45.5176H46.4884V51.1118H45.6776V45.5176Z" fill="#fcfcfc"/>
<path fill-rule="evenodd" clip-rule="evenodd" d="M47.8392 45.5176L47.9469 45.4114H48.758L48.8373 45.4458L51.9742 48.817V45.5176L52.0819 45.4114H52.8921L52.9998 45.5176V51.1118L52.8921 51.218H52.0819L51.9742 51.1118V50.2119L48.8657 46.8773V51.1118L48.758 51.218H47.9469L47.8392 51.1118V45.5176ZM48.0546 45.6238V51.0056H48.6503V46.6049L48.8373 46.533L52.1612 50.0987L52.1896 50.1705V51.0056H52.7844V45.6238H52.1896V49.0898L52.0026 49.1616L48.7106 45.6238H48.0546Z" fill="#fcfcfc"/>
<path d="M52.0811 45.5176V49.0898L48.758 45.5176H47.9469V51.1118H48.758V46.6049L52.0811 50.1689V51.1118H52.8913V45.5176H52.0811Z" fill="#fcfcfc"/>
<path fill-rule="evenodd" clip-rule="evenodd" d="M54.2429 45.5176L54.3506 45.4114H58.1601L58.2678 45.5176V46.2688L58.1601 46.3749H55.2685V47.833H57.9159L58.0236 47.9392V48.6904L57.9159 48.7965H55.2685V50.2544H58.1601L58.2678 50.3606V51.1118L58.1601 51.218H54.3506L54.2429 51.1118V45.5176ZM54.4583 45.6238V51.0056H58.0524V50.4668H55.1608L55.0531 50.3606V48.6904L55.1608 48.5842H57.8082V48.0454H55.1608L55.0531 47.9392V46.2688L55.1608 46.1626H58.0524V45.6238H54.4583Z" fill="#fcfcfc"/>
<path d="M58.1594 46.2688V45.5176H54.3499V51.1118H58.1594V50.3607H55.1609V48.6904H57.9166V47.9392H55.1609V46.2688H58.1594Z" fill="#fcfcfc"/>
</svg>
